<?xml version="1.0" standalone="no"?>
<!DOCTYPE svg PUBLIC "-//W3C//DTD SVG 20010904//EN"
 "http://www.w3.org/TR/2001/REC-SVG-20010904/DTD/svg10.dtd">
<svg version="1.0" xmlns="http://www.w3.org/2000/svg"
 width="1000.000000pt" height="1000.000000pt" viewBox="0 0 1000.000000 1000.000000"
 preserveAspectRatio="xMidYMid meet">

<g transform="translate(0.000000,1000.000000) scale(0.100000,-0.100000)"
fill="#000000" stroke="none">
<path d="M3840 9314 c-225 -26 -376 -55 -549 -105 -877 -255 -1615 -961 -1954
-1869 -140 -376 -200 -717 -201 -1145 -1 -275 8 -382 50 -615 118 -649 423
-1231 883 -1690 833 -829 2041 -1071 3110 -624 139 59 313 151 434 230 l99 65
93 -98 93 -98 40 40 c22 22 187 198 367 390 181 193 351 374 379 403 l50 52
-54 58 c-31 31 -72 75 -93 98 l-38 41 46 77 c381 645 525 1440 399 2206 -207
1257 -1110 2253 -2289 2525 -189 43 -317 57 -575 60 -140 2 -271 1 -290 -1z
m537 -579 c394 -51 780 -209 1105 -452 131 -98 392 -358 489 -488 292 -392
470 -850 520 -1339 15 -154 7 -534 -16 -676 -133 -853 -640 -1565 -1370 -1925
-649 -320 -1380 -322 -2030 -6 -621 303 -1103 885 -1300 1571 -82 284 -110
515 -102 839 7 276 34 461 103 690 192 646 607 1179 1164 1499 250 143 556
247 840 286 144 19 450 20 597 1z"/>
<path d="M2783 7920 c-53 -27 -237 -218 -331 -342 -233 -311 -377 -660 -438
-1068 -22 -142 -25 -481 -5 -620 81 -592 354 -1097 786 -1458 136 -114 229
-172 277 -172 84 0 138 57 138 145 0 66 -20 93 -113 158 -449 309 -752 825
-817 1392 -15 133 -12 356 6 497 57 444 250 834 568 1151 57 56 108 112 115
124 17 34 13 104 -9 140 -40 67 -109 87 -177 53z"/>
<path d="M6540 3589 c-228 -243 -415 -448 -415 -455 0 -20 1959 -2282 2023
-2336 185 -156 436 -203 663 -124 103 36 173 81 265 171 131 129 203 278 226
466 20 163 -19 349 -104 494 -51 87 -68 104 -1158 1165 -476 464 -915 892
-975 951 l-110 109 -415 -441z"/>
</g>
</svg>
