<?xml version="1.0" standalone="no"?>
<!DOCTYPE svg PUBLIC "-//W3C//DTD SVG 20010904//EN"
 "http://www.w3.org/TR/2001/REC-SVG-20010904/DTD/svg10.dtd">
<svg version="1.0" xmlns="http://www.w3.org/2000/svg"
 width="1024.000000pt" height="1024.000000pt" viewBox="0 0 1024.000000 1024.000000"
 preserveAspectRatio="xMidYMid meet">

<g transform="translate(0.000000,1024.000000) scale(0.100000,-0.100000)"
fill="#000000" stroke="none">
<path d="M4880 9234 c-870 -61 -1659 -365 -2330 -900 -173 -138 -495 -460
-634 -634 -259 -324 -477 -700 -621 -1070 -194 -499 -285 -980 -285 -1510 0
-946 312 -1834 906 -2580 137 -172 460 -495 634 -634 619 -494 1315 -782 2135
-883 175 -21 672 -24 845 -5 715 80 1333 303 1898 685 1453 980 2123 2749
1687 4452 -345 1347 -1370 2440 -2698 2879 -264 87 -528 144 -832 181 -124 15
-584 27 -705 19z m1470 -1953 l0 -459 -332 -4 c-508 -5 -488 15 -488 -495 l0
-313 410 0 410 0 -5 -37 c-6 -42 -75 -815 -75 -838 0 -13 -53 -15 -370 -15
l-370 0 0 -1330 0 -1330 -535 0 -535 0 0 1325 0 1325 -275 0 -275 0 0 450 0
450 274 0 274 0 5 448 c4 496 10 550 71 714 42 112 86 184 164 268 129 140
322 234 567 274 133 23 133 23 628 24 l457 2 0 -459z"/>
</g>
</svg>
