<?xml version="1.0" encoding="UTF-8"?>
<svg version="1.1" xmlns="http://www.w3.org/2000/svg" width="1600" height="1600">
<path d="M0 0 C28.07998685 24.57590754 35.93585398 60.57785471 38.48902988 96.45290375 C39.41352878 112.28108849 39.46383361 128.10310623 39.44921875 143.953125 C39.44989407 146.56487538 39.45086599 149.17662569 39.45211792 151.78837585 C39.45391703 157.20796226 39.45158783 162.62753485 39.44677734 168.04711914 C39.44128094 174.3118839 39.44314483 180.57661637 39.44860375 186.84138042 C39.45367461 192.90480391 39.45315805 198.96821154 39.45022202 205.03163719 C39.44955392 207.60140169 39.45037707 210.17116702 39.45270157 212.74093056 C39.45522321 216.30427933 39.45139723 219.86756423 39.44580078 223.4309082 C39.44883713 225.02875153 39.44883713 225.02875153 39.45193481 226.65887451 C39.44911499 227.62132584 39.44629517 228.58377716 39.44338989 229.57539368 C39.44301287 230.41607045 39.44263584 231.25674723 39.44224739 232.12289906 C39.31640625 234.02734375 39.31640625 234.02734375 38.31640625 235.02734375 C36.35271472 235.12135045 34.38561426 235.14477756 32.41967773 235.14086914 C31.15844589 235.14079361 29.89721405 235.14071808 28.59776306 235.14064026 C27.21100831 235.13553285 25.82425396 235.13031684 24.4375 235.125 C23.02645416 235.12313576 21.61540768 235.12171189 20.20436096 235.12071228 C16.4840009 235.11688754 12.76367965 235.10705765 9.04333496 235.0960083 C5.24959844 235.08579323 1.45585567 235.08121446 -2.33789062 235.07617188 C-9.78647606 235.06543533 -17.23502947 235.04835945 -24.68359375 235.02734375 C-24.68782569 234.46709503 -24.69205763 233.90684631 -24.69641781 233.32962036 C-24.80058647 219.57661603 -24.90938696 205.8236547 -25.02293301 192.07072449 C-25.07776587 185.41939752 -25.13105205 178.76806594 -25.1809082 172.11669922 C-25.2292258 165.67808865 -25.2815767 159.23952155 -25.3365345 152.80096436 C-25.35665785 150.36465562 -25.37541342 147.92833513 -25.39266777 145.49200439 C-25.36583584 115.65013936 -25.36583584 115.65013936 -27.99609375 85.96484375 C-28.12580566 85.02495605 -28.25551758 84.08506836 -28.38916016 83.11669922 C-30.60208737 65.86772507 -30.60208737 65.86772507 -38.68359375 51.02734375 C-60.13049199 38.20231415 -94.16280646 47.95146709 -116.53515625 53.00390625 C-117.18470779 53.15051382 -117.83425934 53.29712139 -118.50349426 53.44817162 C-136.26172326 57.47868209 -153.81448045 62.28746235 -171.37996292 67.07633209 C-175.21610508 68.12102715 -179.05357801 69.16078823 -182.89104939 70.20058823 C-195.13153862 73.51736306 -207.36782906 76.84945194 -219.60268402 80.18694305 C-222.65622824 81.01987907 -225.70985011 81.8525299 -228.76348877 82.68511963 C-279.1864639 96.43454793 -329.58144291 110.28616507 -379.97176743 124.15469742 C-393.25600797 127.81067371 -406.54171018 131.46130882 -419.828125 135.109375 C-421.7228499 135.62962714 -423.61757443 136.14988065 -425.51229858 136.6701355 C-426.45443899 136.92882856 -427.3965794 137.18752163 -428.36726952 137.45405388 C-472.07800206 149.45619644 -515.77952457 161.49135116 -559.47386169 173.55303955 C-572.12156191 177.0443887 -584.76962537 180.5344191 -597.41796875 184.0234375 C-598.31645287 184.27128242 -599.21493698 184.51912735 -600.14064789 184.77448273 C-603.77117998 185.77595095 -607.40171461 186.77740996 -611.03225327 187.77885437 C-617.34542299 189.52027559 -623.65856127 191.26181075 -629.97167969 193.00341797 C-658.43525332 200.85567418 -658.43525332 200.85567418 -671.2989502 204.40359306 C-673.23637193 204.9379509 -675.17379055 205.47232007 -677.11120605 206.00670052 C-681.94564333 207.34012111 -686.78013761 208.67333434 -691.61474609 210.00613403 C-700.99972181 212.59363667 -710.38372121 215.18458274 -719.765625 217.78320312 C-723.31108267 218.76473978 -726.85666356 219.74583 -730.40234375 220.7265625 C-731.68265472 221.08075571 -731.68265472 221.08075571 -732.98883057 221.44210434 C-743.38072388 224.31489023 -753.78377637 227.13175407 -764.21484375 229.859375 C-788.25238502 236.17574946 -810.97525955 244.00417558 -833.68408203 254.1361084 C-835.55100882 254.96824714 -837.42184815 255.7915925 -839.29296875 256.61425781 C-846.14850567 259.6338619 -852.9351424 262.77597906 -859.68359375 266.02734375 C-860.67311035 266.50091309 -861.66262695 266.97448242 -862.68212891 267.46240234 C-891.69470161 281.41508378 -918.28527703 297.71893741 -940.68359375 321.02734375 C-939.31654297 320.3003125 -939.31654297 320.3003125 -937.921875 319.55859375 C-906.72603619 303.28446397 -875.00947401 296.84882544 -839.96723175 296.8987093 C-838.3135395 296.89735998 -836.65984757 296.89557459 -835.00615621 296.89339706 C-830.47973148 296.88869466 -825.95332701 296.89015973 -821.42690132 296.89267483 C-816.49552237 296.89431431 -811.56414764 296.89016177 -806.63277006 296.88676566 C-797.99547913 296.88162055 -789.3581938 296.88019292 -780.72090149 296.88122177 C-767.87644625 296.88274803 -755.0319972 296.87858198 -742.18754316 296.87334715 C-717.91067621 296.86367931 -693.63381136 296.86086248 -669.35694271 296.86029009 C-666.68093781 296.86022534 -664.0049329 296.8601574 -661.32892799 296.86008668 C-660.33278316 296.86006117 -660.33278316 296.86006117 -659.31651419 296.86003515 C-644.58548901 296.8596263 -629.85446425 296.85743512 -615.1234393 296.85493083 C-609.05340401 296.85390244 -602.98336871 296.8529124 -596.91333342 296.85191458 C-596.24259923 296.851804 -595.57186505 296.85169341 -594.88080559 296.85157947 C-556.45508559 296.8452572 -518.02936587 296.84113015 -479.60364532 296.84158802 C-478.16627334 296.8416038 -476.72890136 296.84161953 -475.29152938 296.84163523 C-468.80224736 296.84170861 -462.31296534 296.84179678 -455.82368332 296.84188911 C-452.93008538 296.84193024 -450.03648743 296.84197038 -447.14288949 296.84201043 C-445.69459316 296.84203082 -444.24629683 296.84205184 -442.79800049 296.84207349 C-397.01181474 296.84275357 -351.22563672 296.83543839 -305.43945312 296.8215332 C-293.90466565 296.818032 -282.36987817 296.81456246 -270.83509064 296.81126881 C-270.12478559 296.81106593 -269.41448054 296.81086306 -268.68265109 296.81065404 C-246.77860493 296.80443579 -224.8745594 296.80067285 -202.97051239 296.79941082 C-202.28246979 296.79937087 -201.5944272 296.79933092 -200.88553482 296.79928976 C-185.77883754 296.79843634 -170.67214029 296.79817533 -155.56544298 296.79846013 C-150.15951667 296.79855661 -144.75359035 296.79860866 -139.34766404 296.79863886 C-138.0028807 296.79864678 -136.65809735 296.79865698 -135.31331401 296.79866949 C-113.25539364 296.798851 -91.19748075 296.7926054 -69.1395623 296.78371848 C-47.63962545 296.77523561 -26.13969815 296.77425702 -4.63976055 296.7808278 C8.12651591 296.78451921 20.89276332 296.78270329 33.65903669 296.77288546 C42.1962622 296.76687571 50.73346672 296.76819198 59.27069128 296.77535596 C64.12849021 296.77922905 68.98623301 296.7800375 73.84402794 296.7718986 C121.56440674 296.69713562 121.56440674 296.69713562 140.75390625 301.15234375 C141.69016846 301.36479736 142.62643066 301.57725098 143.59106445 301.79614258 C193.77471562 313.72391161 238.59733892 345.76268548 265.87670898 389.60473633 C267.75758699 392.70857206 269.55597819 395.85384398 271.31640625 399.02734375 C271.66300293 399.65189453 272.00959961 400.27644531 272.36669922 400.91992188 C290.2688882 433.71397403 293.47971182 468.20566778 293.45107517 504.89663667 C293.44942723 508.43113864 293.45359516 511.96563487 293.45698434 515.50013494 C293.46211601 521.68331565 293.46355944 527.86648854 293.46252823 534.04967117 C293.46099845 543.24494457 293.46517578 552.44020936 293.47040285 561.63548108 C293.48005814 579.01762652 293.48288642 596.399769 293.48345991 613.7819168 C293.48392003 627.20956675 293.48598137 640.63721554 293.48916054 654.06486511 C293.49005813 657.93459622 293.49094794 661.80432733 293.49183542 665.67405844 C293.49205646 666.63617756 293.49227751 667.59829668 293.49250526 668.58957092 C293.49865685 695.64118814 293.50260609 722.69280496 293.50216198 749.74442291 C293.5021464 750.76369195 293.50213082 751.78296098 293.50211477 752.83311696 C293.50203167 757.99880352 293.50193263 763.16449009 293.50183006 768.33017665 C293.50180015 769.86896907 293.50180015 769.86896907 293.50176962 771.4388482 C293.50172919 773.51338965 293.50168739 775.58793109 293.50164423 777.66247254 C293.50103167 809.92895755 293.50853565 842.19543206 293.5222168 874.46191406 C293.53759357 910.74213 293.54618206 947.02233902 293.54525357 983.30255842 C293.54517895 987.17480437 293.54513024 991.04705032 293.54509926 994.91929626 C293.5450876 995.87268816 293.54507595 996.82608006 293.54506394 997.80836262 C293.54503323 1013.11828134 293.55140572 1028.42819089 293.56003152 1043.73810688 C293.56852849 1059.13841054 293.56948199 1074.53870085 293.5629222 1089.93900555 C293.55924015 1099.07468451 293.56101849 1108.21032283 293.57086454 1117.34599744 C293.57689857 1123.4644096 293.5755314 1129.58279256 293.56839404 1135.70120342 C293.56454117 1139.17665473 293.56365266 1142.65202785 293.5718514 1146.12747341 C293.67447177 1200.20984539 282.60656286 1248.81393727 244.31640625 1289.02734375 C243.54852783 1289.83606934 243.54852783 1289.83606934 242.76513672 1290.66113281 C209.25884497 1325.72380797 163.81368485 1344.98763495 115.38160419 1346.11928304 C111.00136885 1346.1679185 106.62128172 1346.16206442 102.24084473 1346.1559782 C100.54792765 1346.1573274 98.85501087 1346.15911273 97.16209465 1346.16129044 C92.52676084 1346.16599436 87.8914468 1346.16452727 83.25611205 1346.16201267 C78.20667368 1346.16037359 73.15723943 1346.1645254 68.10780239 1346.16792184 C59.26322672 1346.17306759 50.41865653 1346.17449447 41.57407951 1346.17346573 C28.42139546 1346.17193964 15.26871746 1346.17610515 2.11603459 1346.18134035 C-22.74322585 1346.19100878 -47.60248463 1346.19382504 -72.46174651 1346.19439741 C-75.20204055 1346.19446216 -77.94233459 1346.1945301 -80.68262863 1346.19460082 C-81.36267753 1346.19461783 -82.04272642 1346.19463483 -82.74338286 1346.19465235 C-97.82749219 1346.19506118 -112.91160109 1346.1972523 -127.99571019 1346.19975667 C-134.21101081 1346.20078506 -140.42631143 1346.2017751 -146.64161205 1346.20277292 C-147.32839548 1346.2028835 -148.01517891 1346.20299409 -148.72277395 1346.20310803 C-188.06852422 1346.2094304 -227.41427422 1346.21355734 -266.76002502 1346.21309948 C-268.23184729 1346.2130837 -269.70366956 1346.21306797 -271.17549183 1346.21305227 C-277.82032374 1346.21297889 -284.46515564 1346.21289072 -291.10998754 1346.21279839 C-294.07295313 1346.21275726 -297.03591871 1346.21271712 -299.99888429 1346.21267707 C-301.48190042 1346.21265668 -302.96491656 1346.21263566 -304.44793269 1346.21261401 C-351.33231642 1346.21193392 -398.2166926 1346.21924921 -445.10107422 1346.2331543 C-456.91258746 1346.23665549 -468.72410071 1346.24012503 -480.53561401 1346.24341869 C-481.26295639 1346.24362157 -481.99029876 1346.24382444 -482.73968181 1346.24403346 C-505.16850566 1346.25025154 -527.59732889 1346.25401462 -550.02615356 1346.25527668 C-550.73066264 1346.25531663 -551.43517171 1346.25535658 -552.16102954 1346.25539774 C-567.62913719 1346.25625115 -583.0972448 1346.25651217 -598.56535248 1346.25622737 C-604.10058524 1346.25613089 -609.635818 1346.25607884 -615.17105076 1346.25604864 C-616.54800434 1346.25604072 -617.92495792 1346.25603052 -619.3019115 1346.25601801 C-641.21200308 1346.25584193 -663.12208818 1346.26152987 -685.0321779 1346.27017183 C-707.72456479 1346.27907684 -730.41694393 1346.28063317 -753.10933214 1346.2738597 C-766.18221468 1346.27016782 -779.25506885 1346.27198564 -792.32794837 1346.28180204 C-801.06954887 1346.28781055 -809.81112887 1346.28649688 -818.55272844 1346.27933154 C-823.52725669 1346.27545742 -828.50173012 1346.27465302 -833.47625446 1346.2827889 C-882.56856717 1346.35786138 -882.56856717 1346.35786138 -900.80859375 1341.83984375 C-901.70562012 1341.62481201 -902.60264648 1341.40978027 -903.52685547 1341.18823242 C-935.56802746 1333.2159029 -962.65115518 1317.48018542 -986.68359375 1295.02734375 C-987.49699219 1294.26808594 -988.31039062 1293.50882813 -989.1484375 1292.7265625 C-1015.33240756 1267.45261984 -1031.79493554 1233.46749618 -1038.68359375 1198.02734375 C-1038.8587117 1197.17233353 -1039.03382965 1196.31732331 -1039.2142542 1195.43640369 C-1041.37046688 1183.04667386 -1040.9632508 1170.52297076 -1040.9343275 1157.98961168 C-1040.9283097 1154.41187333 -1040.93399998 1150.8341494 -1040.93814832 1147.25641102 C-1040.94381471 1140.99480478 -1040.94210079 1134.73323489 -1040.93546295 1128.4716301 C-1040.92561739 1119.15802284 -1040.92728524 1109.84444202 -1040.93121325 1100.53083166 C-1040.93748344 1084.84717913 -1040.93432096 1069.16354165 -1040.92561913 1053.47989082 C-1040.91698859 1037.91998721 -1040.91209933 1022.36009036 -1040.91228676 1006.80018425 C-1040.9122944 1005.83036764 -1040.91230205 1004.86055103 -1040.91230993 1003.86134603 C-1040.91235084 999.92365778 -1040.91241646 995.98596952 -1040.91251574 992.04828126 C-1040.91342195 955.09632506 -1040.90348015 918.14437911 -1040.88808607 881.19242647 C-1040.87450634 848.47602044 -1040.86822297 815.75962171 -1040.86889648 783.04321289 C-1040.8689369 780.94821938 -1040.86897726 778.85322587 -1040.86901756 776.75823236 C-1040.86903791 775.72244175 -1040.86905827 774.68665113 -1040.86907923 773.61947293 C-1040.86918005 768.40368458 -1040.86927063 763.18789623 -1040.86934948 757.97210789 C-1040.86936619 756.94277312 -1040.86938291 755.91343835 -1040.86940013 754.85291162 C-1040.86976719 727.42530473 -1040.8652055 699.99769875 -1040.85902292 672.57009262 C-1040.85880264 671.59128232 -1040.85858237 670.61247202 -1040.85835543 669.60400081 C-1040.85746733 665.66909994 -1040.85657884 661.73419907 -1040.85566447 657.79929821 C-1040.85252738 644.21165989 -1040.85099817 630.62402229 -1040.85055298 617.03638364 C-1040.84995018 599.47787364 -1040.84584738 581.91936961 -1040.83612152 564.36086214 C-1040.83152135 555.91466307 -1040.82833847 547.46847061 -1040.82971573 539.0222702 C-1040.83358111 509.73473691 -1040.82351906 480.44767508 -1040.35543845 451.16307645 C-1040.31918653 448.8941568 -1040.28513317 446.62520053 -1040.25368842 444.35620917 C-1039.96647719 424.45720447 -1039.08137687 404.44659139 -1035.87109375 384.77734375 C-1035.70077637 383.71 -1035.53045898 382.64265625 -1035.35498047 381.54296875 C-1028.31833472 338.98107906 -1011.85197615 301.21694079 -981.68359375 270.02734375 C-981.2148584 269.53282715 -980.74612305 269.03831055 -980.26318359 268.52880859 C-959.70159996 246.85390741 -933.76080068 231.17164376 -907.68359375 217.02734375 C-906.55824219 216.4132666 -905.43289063 215.79918945 -904.2734375 215.16650391 C-895.80637644 210.57492052 -887.22676177 206.34173813 -878.43359375 202.40234375 C-877.78750153 202.11141846 -877.1414093 201.82049316 -876.47573853 201.52075195 C-865.54139981 196.60828775 -854.49468508 191.99309658 -843.37109375 187.52734375 C-842.66440552 187.2421991 -841.95771729 186.95705444 -841.22961426 186.66326904 C-824.86459969 180.08030657 -808.21295631 174.73552839 -791.19921875 170.10546875 C-789.53387374 169.64821326 -787.86865555 169.1904957 -786.20355225 168.73236084 C-782.64491943 167.75418198 -779.08549586 166.77895854 -775.52539062 165.80615234 C-769.79549905 164.24035146 -764.06751872 162.66763713 -758.33984375 161.09375 C-752.2874728 159.43088186 -746.23503095 157.76827736 -740.18200684 156.10778809 C-720.29707224 150.65229766 -700.4238162 145.15488607 -680.5519104 139.65216064 C-670.69914774 136.92393065 -660.84568328 134.19823704 -650.9921875 131.47265625 C-650.01907309 131.20347256 -649.04595867 130.93428886 -648.04335594 130.65694809 C-618.5280723 122.49272481 -589.00627145 114.35212434 -559.48431015 106.21208763 C-546.923726 102.74877974 -534.36369638 99.2834688 -521.80415916 95.8163662 C-475.46341912 83.02397256 -429.11325015 70.26629719 -382.75448227 57.53939056 C-369.32056629 53.85130045 -355.8878464 50.15888541 -342.4560585 46.46305275 C-291.8925386 32.55056705 -241.31534072 18.68977059 -190.68359375 5.02734375 C-190.01352043 4.84650238 -189.34344711 4.66566101 -188.65306854 4.4793396 C-42.69572326 -34.90509039 -42.69572326 -34.90509039 0 0 Z M-943.49609375 406.58984375 C-944.90813152 408.38974827 -946.30499331 410.20170201 -947.68359375 412.02734375 C-948.27527344 412.80335938 -948.86695313 413.579375 -949.4765625 414.37890625 C-964.25650041 434.60408444 -975.16682072 459.553387 -976.27205181 484.78982544 C-976.31161467 485.6448308 -976.35117753 486.49983616 -976.39193926 487.38075078 C-976.90118501 499.66935323 -976.83207943 511.96842563 -976.83076477 524.26513672 C-976.83352922 527.08950886 -976.83776079 529.91387842 -976.84190625 532.73824883 C-976.85115224 539.64721111 -976.85514058 546.55616701 -976.85742522 553.4651347 C-976.86040813 561.75141361 -976.86911706 570.0376842 -976.8778395 578.32395869 C-976.89859304 598.33595016 -976.90913669 618.347943 -976.9179691 638.3599427 C-976.92218598 647.83485624 -976.92740632 657.30976916 -976.93265363 666.78468217 C-976.95053003 699.25022163 -976.96552658 731.71576129 -976.97297382 764.18130493 C-976.97344857 766.21576194 -976.97392446 768.25021895 -976.97440149 770.28467596 C-976.97463786 771.29351182 -976.97487424 772.30234768 -976.97511778 773.34175432 C-976.97631889 778.45244559 -976.97753437 783.56313686 -976.97875977 788.67382812 C-976.97899992 789.68802762 -976.97924007 790.70222712 -976.97948749 791.74715993 C-976.98738497 824.64895825 -977.01083315 857.55072058 -977.04331571 890.45250317 C-977.07763825 925.28181648 -977.09732681 960.11110873 -977.10061806 994.94043922 C-977.10103558 998.76565171 -977.10151513 1002.59086419 -977.10204124 1006.41607666 C-977.10216444 1007.35787312 -977.10228763 1008.29966958 -977.10241455 1009.27000533 C-977.1047426 1024.3989393 -977.12037934 1039.52783125 -977.14088309 1054.65675026 C-977.16117005 1069.86708571 -977.16660465 1085.07737087 -977.15711246 1100.28771734 C-977.15191003 1109.31301253 -977.15771553 1118.33813982 -977.17964713 1127.36341073 C-977.19321225 1133.40423276 -977.19202818 1139.44493996 -977.17924517 1145.48576329 C-977.17238652 1148.91941606 -977.17380087 1152.3524911 -977.18880526 1155.78615546 C-977.26533958 1174.46583189 -976.51317275 1192.85294408 -969.05859375 1210.27734375 C-968.5476416 1211.50336304 -968.5476416 1211.50336304 -968.02636719 1212.75415039 C-961.91838924 1226.89293733 -953.46875658 1238.15013117 -942.68359375 1249.02734375 C-942.03519531 1249.72472656 -941.38679688 1250.42210937 -940.71875 1251.140625 C-930.40267893 1262.08779689 -916.19759083 1269.58631919 -902.24609375 1274.83984375 C-901.52043213 1275.11763672 -900.79477051 1275.39542969 -900.04711914 1275.68164062 C-886.86460258 1280.41714969 -874.01468185 1281.46932072 -860.16425705 1281.40766048 C-858.43515545 1281.41110063 -856.70605605 1281.41585187 -854.9769612 1281.42178145 C-850.24579556 1281.43423258 -845.5148114 1281.42816758 -840.78364513 1281.41894777 C-835.62867749 1281.41221776 -830.47374032 1281.42291422 -825.31877923 1281.43134362 C-816.29056354 1281.44370192 -807.26239983 1281.44492655 -798.23417854 1281.43879318 C-784.80860759 1281.42969687 -771.38308465 1281.43773841 -757.95751737 1281.44908442 C-733.28090182 1281.46932118 -708.60431427 1281.47081288 -683.92769496 1281.4654338 C-680.4337261 1281.46467805 -676.93975725 1281.46395043 -673.44578838 1281.46325183 C-672.75175583 1281.46311274 -672.05772328 1281.46297365 -671.34265944 1281.46283034 C-655.94798553 1281.4598755 -640.55331451 1281.46289337 -625.15864112 1281.46714812 C-623.05043013 1281.46773027 -620.94221913 1281.46829912 -618.83400814 1281.46886375 C-613.18229547 1281.47037876 -607.53058282 1281.47190568 -601.87887016 1281.47345676 C-562.43476818 1281.4842104 -522.99066887 1281.48891853 -483.54656601 1281.4809866 C-482.80335859 1281.48083829 -482.06015116 1281.48068998 -481.29442231 1281.48053718 C-473.00725563 1281.47887825 -464.72008898 1281.47712866 -456.43292233 1281.47534417 C-455.31065264 1281.47510264 -455.31065264 1281.47510264 -454.16571084 1281.47485622 C-449.62717599 1281.47387875 -449.62717599 1281.47387875 -445.08864115 1281.47289503 C-397.23567525 1281.46250444 -349.38274613 1281.47026954 -301.52978516 1281.49389648 C-289.47198874 1281.49984012 -277.41419231 1281.50573178 -265.35639572 1281.51130581 C-264.61390298 1281.51164958 -263.87141025 1281.51199335 -263.10641773 1281.51234754 C-240.2146484 1281.52287865 -217.32288214 1281.52846904 -194.43111038 1281.52886295 C-193.35272854 1281.52888213 -193.35272854 1281.52888213 -192.2525612 1281.52890169 C-176.46900734 1281.52913 -160.68545374 1281.52812366 -144.90190002 1281.52599263 C-139.25402913 1281.5252379 -133.60615823 1281.52455969 -127.95828732 1281.52391248 C-126.55330131 1281.52374979 -125.14831529 1281.52358213 -123.74332928 1281.52340947 C-101.37829307 1281.52069094 -79.01327922 1281.52923119 -56.64824782 1281.54326357 C-33.49029951 1281.5576869 -10.33239258 1281.55719852 12.8255578 1281.53988885 C26.17016231 1281.53032482 39.51465788 1281.53176291 52.85925512 1281.54912354 C61.77811763 1281.55961514 70.6968972 1281.55550957 79.61575155 1281.5396435 C84.69400877 1281.53101475 89.77205257 1281.52857974 94.85029879 1281.54391282 C99.48033539 1281.55776025 104.10997721 1281.55283256 108.73999123 1281.53362763 C110.3946571 1281.52992616 112.04935564 1281.53275113 113.70399176 1281.54334072 C141.96391019 1281.71157738 169.34315419 1272.34084205 190.31640625 1253.02734375 C191.09927002 1252.30804687 191.09927002 1252.30804687 191.89794922 1251.57421875 C215.80064378 1229.36133041 228.05589216 1200.55348867 229.31640625 1168.02734375 C229.49452094 1159.50411462 229.4577689 1150.97739547 229.45107517 1142.4527441 C229.44942878 1138.94390103 229.45359388 1135.43506378 229.45698434 1131.92622262 C229.46211838 1125.78672135 229.46355902 1119.64722796 229.46252823 1113.50772476 C229.46099911 1104.37770689 229.46517429 1095.2476977 229.47040285 1086.11768152 C229.48005983 1068.86078481 229.48288646 1051.60389107 229.48345991 1034.34699198 C229.48391989 1021.01938098 229.48598052 1007.69177115 229.48916054 994.36416054 C229.49005811 990.52440479 229.49094793 986.68464903 229.49183542 982.84489328 C229.49216699 981.41294225 229.49216699 981.41294225 229.49250526 979.95206291 C229.49865691 953.11085255 229.50260607 926.2696426 229.50216198 899.42843151 C229.5021464 898.41704231 229.50213082 897.40565311 229.50211477 896.36361575 C229.50203167 891.23774988 229.50193263 886.11188401 229.50183006 880.98601814 C229.50181012 879.96804465 229.50179017 878.95007115 229.50176962 877.90124997 C229.50172919 875.84266179 229.50168739 873.7840736 229.50164423 871.72548542 C229.50103142 839.69418301 229.50854017 807.66289118 229.5222168 775.6315918 C229.53758421 739.62575028 229.54618265 703.61991572 229.54525357 667.61407071 C229.54517895 663.7733719 229.54513024 659.93267308 229.54509926 656.09197426 C229.5450876 655.14633023 229.54507595 654.20068619 229.54506394 653.22638628 C229.5450332 638.0240181 229.55141258 622.82165912 229.56003152 607.61929368 C229.56851673 592.33659353 229.56949112 577.05390683 229.5629222 561.77120563 C229.55923261 552.69870185 229.56104128 543.62623896 229.57086454 534.55373953 C229.57687884 528.48506096 229.57555301 522.4164119 229.56839404 516.34773467 C229.56452481 512.89574985 229.56370116 509.44384397 229.5718514 505.99186482 C229.63426623 473.17013585 225.68692031 444.74392157 205.31640625 418.02734375 C204.61902344 417.10695313 203.92164063 416.1865625 203.203125 415.23828125 C182.16561284 388.54717806 154.353085 370.7889731 121.31640625 363.02734375 C120.19197371 362.76026286 120.19197371 362.76026286 119.04482536 362.4877864 C115.79574567 361.93947809 112.71571702 361.90053822 109.41951305 361.89854258 C108.73343114 361.89676757 108.04734923 361.89499256 107.34047697 361.89316377 C105.03202778 361.88841731 102.72364091 361.89079835 100.41518879 361.89312267 C98.74007769 361.89116984 97.06496706 361.88878103 95.38985714 361.8859947 C90.76203298 361.87958293 86.13422614 361.87943402 81.50639838 361.88027211 C76.48080182 361.88010284 71.45521151 361.87419928 66.42961806 361.86903125 C56.45065229 361.85969485 46.47169095 361.85578145 36.49272135 361.85351228 C24.54419769 361.85055288 12.59567993 361.84185697 0.64715937 361.833098 C-28.2371654 361.81224098 -57.1214916 361.80177807 -86.00582186 361.7929684 C-95.57236356 361.79003435 -105.13890504 361.78666445 -114.70544648 361.78300118 C-115.71781519 361.78261375 -115.71781519 361.78261375 -116.75063579 361.78221848 C-119.48112969 361.78117225 -122.21162359 361.78012383 -124.94211749 361.77907266 C-171.65255027 361.76110644 -218.3629834 361.7457283 -265.07341914 361.73831363 C-268.74274486 361.73772966 -272.41207058 361.7371324 -276.0813963 361.73653601 C-276.80927091 361.73641789 -277.53714552 361.73629977 -278.28707694 361.73617808 C-285.66141398 361.7349807 -293.03575101 361.73377193 -300.41008803 361.73254554 C-301.8886592 361.73230031 -303.36723036 361.73205645 -304.84580153 361.73181397 C-352.31697554 361.72402674 -399.7881248 361.70164977 -447.259288 361.66913755 C-481.36689767 361.64578568 -515.47450242 361.62423707 -549.58211994 361.61713123 C-550.63474137 361.6169107 -550.63474137 361.6169107 -551.70862787 361.61668572 C-567.11547148 361.61350056 -582.52231505 361.6114499 -597.92915895 361.61045817 C-604.1286944 361.61004344 -610.32822984 361.60948854 -616.52776527 361.60889626 C-617.2062559 361.60883559 -617.88474652 361.60877492 -618.58379747 361.60871241 C-640.42271842 361.60669795 -662.26161013 361.59247066 -684.10052089 361.57195125 C-706.71931085 361.55077453 -729.33807044 361.54402472 -751.95686992 361.55382504 C-764.99281088 361.55904158 -778.02863582 361.5531552 -791.06456008 361.53129037 C-799.77674656 361.51778229 -808.48885317 361.51885943 -817.20104044 361.53169233 C-822.16225826 361.53858882 -827.12325428 361.53925891 -832.08445229 361.52213224 C-836.60723496 361.50664673 -841.12961906 361.50993523 -845.65239042 361.52754252 C-847.2693788 361.53066531 -848.8863983 361.52723908 -850.50335098 361.51605077 C-886.95365029 361.28047986 -920.31076795 378.73606826 -943.49609375 406.58984375 Z " fill="#0078FE" transform="translate(1167.68359375,114.97265625)"/>
<path d="M0 0 C17.38386303 14.29268044 27.66220397 33.57722668 30.43554688 55.78808594 C31.80645459 78.98806267 24.73801432 99.51401309 9.77148438 117.19042969 C-3.17007797 131.5819664 -22.25247857 141.68473714 -41.71728516 142.92529297 C-62.70157229 143.95321767 -82.99991498 139.63021933 -99.42382812 125.74511719 C-100.4834375 124.77638672 -100.4834375 124.77638672 -101.56445312 123.78808594 C-102.45648437 122.98757813 -103.34851562 122.18707031 -104.26757812 121.36230469 C-118.38904364 108.03179557 -128.15845882 89.31612454 -128.99804688 69.67480469 C-129.02171964 67.60853363 -129.0225791 65.54188966 -129.00195312 63.47558594 C-128.99292969 62.3825415 -128.98390625 61.28949707 -128.97460938 60.16333008 C-128.58785552 42.02752842 -121.90644735 24.28791195 -109.56445312 10.78808594 C-108.76394531 9.89605469 -107.9634375 9.00402344 -107.13867188 8.08496094 C-79.28299025 -21.42351801 -32.1803369 -24.92871292 0 0 Z " fill="#0078FE" transform="translate(1271.564453125,873.2119140625)"/>
</svg>
