<?xml version="1.0" standalone="no"?>
<!DOCTYPE svg PUBLIC "-//W3C//DTD SVG 20010904//EN"
 "http://www.w3.org/TR/2001/REC-SVG-20010904/DTD/svg10.dtd">
<svg version="1.0" xmlns="http://www.w3.org/2000/svg"
 width="743.000000pt" height="674.000000pt" viewBox="0 0 743.000000 674.000000"
 preserveAspectRatio="xMidYMid meet">

<g transform="translate(0.000000,674.000000) scale(0.100000,-0.100000)"
fill="#000000" stroke="none">
<path d="M2110 6734 c-135 -17 -260 -38 -349 -60 -841 -207 -1505 -879 -1702
-1722 -52 -223 -72 -525 -50 -747 71 -712 451 -1336 1051 -1727 258 -169 550
-283 860 -338 157 -28 495 -38 651 -20 155 17 327 56 484 108 161 53 409 173
539 261 l89 60 75 -65 c42 -35 78 -64 81 -64 3 1 38 39 76 86 39 47 79 94 91
105 l21 20 84 -70 84 -70 30 37 c16 20 96 115 177 210 l146 174 -71 61 c-40
33 -78 66 -86 72 -11 11 -2 26 51 86 35 41 76 90 91 110 l26 35 -74 63 c-41
34 -75 66 -75 70 0 4 22 61 50 128 295 716 215 1526 -215 2173 -307 462 -787
808 -1315 949 -213 57 -334 73 -570 76 -118 2 -231 1 -250 -1z m535 -367 c414
-78 751 -250 1044 -532 525 -506 726 -1275 517 -1972 -99 -330 -269 -608 -522
-853 -164 -159 -287 -246 -490 -348 -683 -342 -1511 -254 -2106 224 -381 306
-627 723 -714 1214 -24 131 -27 501 -6 620 79 442 258 794 556 1094 162 163
323 277 539 381 195 95 391 154 617 185 97 13 470 5 565 -13z"/>
<path d="M1333 5876 c-125 -93 -208 -169 -299 -273 -631 -723 -594 -1811 86
-2493 90 -90 236 -207 325 -260 39 -23 38 -22 -24 45 -318 347 -508 762 -567
1234 -18 150 -18 429 1 578 56 439 240 851 523 1171 35 39 61 72 59 72 -3 0
-50 -33 -104 -74z"/>
<path d="M4655 2679 c-88 -106 -174 -208 -191 -228 -17 -20 -64 -74 -103 -121
l-71 -84 103 -106 c56 -58 245 -252 420 -431 458 -471 1106 -1095 1580 -1521
192 -173 209 -187 233 -178 61 24 160 104 299 244 238 240 452 538 493 689
l11 38 -180 142 c-254 201 -278 220 -308 242 -16 11 -160 119 -322 241 -330
248 -612 452 -960 696 -329 231 -826 568 -836 568 -4 0 -80 -86 -168 -191z
m765 -1291 c311 -258 691 -562 1024 -820 177 -137 194 -148 234 -148 50 0 139
29 182 60 37 27 38 16 2 -41 -42 -64 -117 -135 -195 -181 l-68 -41 -32 30
c-18 16 -122 110 -232 209 -395 353 -1109 1029 -1375 1300 l-115 117 170 -145
c94 -79 276 -232 405 -340z"/>
</g>
</svg>
