<?xml version="1.0" encoding="UTF-8"?>
<svg version="1.1" xmlns="http://www.w3.org/2000/svg" width="512" height="512">
<path d="M0 0 C1.00093689 -0.00511093 2.00187378 -0.01022186 3.03314209 -0.01548767 C6.3283086 -0.02934047 9.62326493 -0.02843007 12.91845703 -0.02612305 C15.2185982 -0.03001243 17.51873865 -0.03434761 19.81887817 -0.03910828 C24.63546071 -0.0465613 29.45196994 -0.0462859 34.26855469 -0.04101562 C40.4274946 -0.03522333 46.58613355 -0.05215094 52.74502373 -0.0753603 C57.49437197 -0.0901237 62.24364817 -0.09096575 66.99301529 -0.08785057 C69.26310955 -0.0883625 71.53320797 -0.09357611 73.80327988 -0.10366249 C76.98363299 -0.11605943 80.16340552 -0.10921528 83.34375 -0.09765625 C84.27287201 -0.10529999 85.20199402 -0.11294373 86.15927124 -0.12081909 C94.42994184 -0.05469436 102.10287884 1.54191236 108.25854492 7.39916992 C115.01984359 15.61887184 116.56982531 26.93116793 118.59643555 37.06518555 C119.11745071 39.66804847 119.65794595 42.26629515 120.20166016 44.86450195 C120.54458512 46.52963461 120.88642166 48.19499188 121.22705078 49.8605957 C121.38635574 50.63148529 121.54566071 51.40237488 121.70979309 52.19662476 C122.45728136 55.95881424 122.87068523 59.44704105 122.80126953 63.2746582 C123.88310095 63.27351904 123.88310095 63.27351904 124.98678756 63.27235687 C167.75018774 63.22758228 210.51358536 63.19327576 253.27700429 63.17252754 C258.41383623 63.17002619 263.55066813 63.16743754 268.6875 63.16479492 C269.71013314 63.1642703 270.73276628 63.16374568 271.78638831 63.16320516 C288.3358299 63.15450706 304.88525758 63.13874035 321.43469092 63.12035261 C338.4210944 63.10163704 355.4074906 63.09053797 372.39390397 63.08648121 C382.87195585 63.0837396 393.34996838 63.07508625 403.82800815 63.05882527 C411.01717358 63.04823794 418.20631873 63.04506154 425.39549139 63.04765545 C429.54070042 63.04893401 433.68584076 63.04700015 437.83103752 63.03624725 C441.63247044 63.02645853 445.433789 63.02605947 449.23522738 63.03286041 C451.24846375 63.03409511 453.26169893 63.02551989 455.27491546 63.01649559 C477.8099213 63.09012878 477.8099213 63.09012878 485.80126953 70.2746582 C489.89132472 75.28497581 490.28767953 79.26569318 490.19071007 85.63401222 C489.38721921 93.14536632 486.7040115 100.17390193 484.28100586 107.29296875 C483.68662296 109.08256542 483.09380059 110.87268102 482.50241089 112.66326904 C480.9007715 117.49711767 479.27688221 122.32321392 477.64825273 127.14802527 C475.94237818 132.2126985 474.25563667 137.28374027 472.56632996 142.35395813 C469.7277877 150.8639769 466.87538313 159.36924605 464.01391602 167.87158203 C460.71118786 177.68538981 457.42733203 187.50534745 454.15422422 197.32907075 C450.66093883 207.81298746 447.15394581 218.29228104 443.64293075 228.77027154 C442.635694 231.7792276 441.63099965 234.78902237 440.62687111 237.79901695 C439.04548141 242.53713463 437.45489319 247.27206903 435.85729599 252.00474548 C435.27417616 253.73666326 434.69404003 255.46958908 434.11719704 257.20360756 C426.19959482 280.98615167 426.19959482 280.98615167 417.80126953 285.2746582 C415.02020074 286.12202642 412.53972068 286.39925226 409.63899612 286.39770603 C408.81243397 286.39969708 407.98587182 286.40168813 407.13426232 286.40373951 C406.23154084 286.40082667 405.32881936 286.39791383 404.39874268 286.39491272 C403.43569017 286.39576714 402.47263767 286.39662157 401.48040175 286.39750189 C398.24521651 286.39915232 395.01008283 286.3936424 391.77490234 286.38818359 C389.45907085 286.3879016 387.14323927 286.38805969 384.82740784 286.3886261 C378.53238312 286.38891361 372.23737736 286.38302438 365.94235706 286.37605214 C359.36666268 286.36981087 352.79096789 286.36921419 346.215271 286.36802673 C335.17573721 286.365436 324.13621008 286.35901854 313.09667969 286.35009766 C301.72591181 286.34091866 290.35514583 286.33384021 278.984375 286.32958984 C277.9330354 286.32919576 277.9330354 286.32919576 276.86045662 286.32879371 C273.34428242 286.32748867 269.82810821 286.32622497 266.31193399 286.32498181 C237.14170797 286.31461508 207.97148884 286.29692755 178.80126953 286.2746582 C179.79126953 289.5746582 180.78126953 292.8746582 181.80126953 296.2746582 C182.82865234 296.42161133 183.85603516 296.56856445 184.91455078 296.7199707 C196.47761639 298.53010945 206.24508072 301.91745053 214.80126953 310.2746582 C215.15713984 310.92455939 215.51301016 311.57446058 215.87966442 312.24405575 C217.29883719 314.74767417 218.58362072 316.42377329 220.80126953 318.2746582 C225.47150119 319.49561814 230.13069866 319.38045238 234.92553711 319.32568359 C236.36996124 319.33817119 237.81435948 319.35404243 239.25871277 319.37303162 C243.17258058 319.4137054 247.08479327 319.40377156 250.99875474 319.3821938 C254.27148774 319.36898094 257.54392355 319.38112614 260.81664485 319.39339918 C268.54202941 319.42220053 276.26661877 319.41065135 283.99194336 319.37255859 C291.94736423 319.33390644 299.90087578 319.35671578 307.85616189 319.4110871 C314.69813445 319.45602738 321.53952338 319.46573785 328.38161772 319.44681734 C332.46281956 319.4356838 336.54299494 319.43690908 340.62409401 319.47075081 C344.46554333 319.50080612 348.30439885 319.48649241 352.14564705 319.43897438 C353.54960732 319.42873242 354.95377735 319.43357194 356.3576088 319.45517349 C364.43830211 319.61017147 364.43830211 319.61017147 371.56508446 316.28323174 C373.97916411 313.92821912 373.97916411 313.92821912 375.97765636 311.44945431 C378.57486658 308.35208544 381.5348699 306.67138107 385.11376953 304.8996582 C385.75838135 304.57223633 386.40299316 304.24481445 387.06713867 303.9074707 C401.83419114 296.66896988 417.57993201 296.42491246 433.17236328 301.0168457 C438.28301755 302.78824578 442.48969431 305.02590135 446.80126953 308.2746582 C447.57986328 308.86118164 448.35845703 309.44770508 449.16064453 310.05200195 C461.09606381 319.84465301 467.2428972 334.11419647 468.80126953 349.2746582 C469.82314022 366.84366307 466.2932787 383.02746356 454.48876953 396.6496582 C442.30502528 409.18327349 429.10645809 416.08017436 411.48876953 416.5871582 C395.92975491 416.25883199 382.41185758 410.65005975 371.14892578 399.8449707 C363.05154001 390.97961323 359.22585316 382.77857565 354.80126953 371.2746582 C315.20126953 370.9446582 275.60126953 370.6146582 234.80126953 370.2746582 C233.81126953 373.5746582 232.82126953 376.8746582 231.80126953 380.2746582 C224.43072559 395.83697661 209.55536277 408.03470944 193.55126953 413.7746582 C178.72030847 417.78689888 164.63945633 415.41285262 151.05126953 408.5246582 C136.64994929 400.1517976 126.76157959 386.11388859 122.36767578 370.0949707 C118.77389455 352.20041862 121.91576958 335.68252729 131.43408203 320.27075195 C132.80126953 318.2746582 132.80126953 318.2746582 134.80126953 316.2746582 C134.9771587 309.59703261 133.17982503 302.84861306 131.609375 296.40209961 C131.38529811 295.45908052 131.16122122 294.51606144 130.93035412 293.54446602 C130.18247067 290.40356427 129.42539127 287.26495246 128.66845703 284.1262207 C128.12587318 281.85441811 127.58393436 279.58246139 127.04258728 277.31036377 C125.87412726 272.41102579 124.70183302 267.51262763 123.52651978 262.6149292 C121.65922857 254.83267829 119.80056476 247.04838103 117.94458008 239.26342773 C117.78715942 238.60313843 117.62973876 237.94284914 117.46754777 237.26255107 C116.65925857 233.87206293 115.85112101 230.48153867 115.04307747 227.09099197 C114.38085125 224.31246898 113.71828111 221.53402832 113.05541801 218.7556572 C107.68761813 196.25624614 102.36690806 173.74601075 97.07861328 151.2277832 C96.90007655 150.46755151 96.72153982 149.70731982 96.53759289 148.92405081 C94.067561 138.40540082 91.60024449 127.88611455 89.13364124 117.36666012 C88.26589444 113.66613884 87.39793344 109.96566781 86.52996826 106.26519775 C86.35997037 105.54042016 86.18997248 104.81564257 86.01482314 104.06890202 C85.1799161 100.50933861 84.34497773 96.94978255 83.50999928 93.3902359 C83.18957161 92.02421609 82.8691456 90.65819589 82.54872131 89.29217529 C82.39310252 88.62875279 82.23748373 87.9653303 82.07714921 87.28180408 C81.02616391 82.80104964 79.9758541 78.32013718 78.92576599 73.83917236 C78.38923227 71.55057759 77.8526977 69.26198301 77.31616211 66.97338867 C77.07381269 65.9385969 76.83146328 64.90380512 76.58176994 63.83765602 C76.36008204 62.89227659 76.13839413 61.94689716 75.9099884 60.97286987 C75.71867246 60.15640425 75.52735651 59.33993862 75.33024311 58.49873161 C74.83582889 56.41996329 74.32420454 54.34641535 73.80126953 52.2746582 C72.69737381 52.26879196 71.59347809 52.26292572 70.45613098 52.25688171 C60.05323086 52.19967014 49.65054008 52.12691661 39.24785328 52.03894329 C33.89970722 51.99421476 28.55163778 51.954964 23.20336914 51.92822266 C18.04203868 51.90221461 12.88100267 51.86182967 7.71985435 51.81147194 C5.75072581 51.79478635 3.78154631 51.78328263 1.81235695 51.7770443 C-0.94580329 51.76742169 -3.70320735 51.73938435 -6.46118164 51.70703125 C-7.27542099 51.70846634 -8.08966034 51.70990143 -8.92857361 51.71138 C-14.80511159 51.61388407 -18.07775151 50.39563717 -22.19873047 46.2746582 C-22.43559487 43.47607227 -22.55108928 40.77982565 -22.56982422 37.9777832 C-22.57885269 37.15139343 -22.58788116 36.32500366 -22.59718323 35.47357178 C-22.61170702 33.72175732 -22.62057774 31.96988835 -22.62426758 30.21801758 C-22.63612478 27.5484537 -22.68525183 24.88123111 -22.73583984 22.2121582 C-22.74530871 20.50904447 -22.75254153 18.80591654 -22.75732422 17.1027832 C-22.77685654 16.30882141 -22.79638885 15.51485962 -22.81651306 14.69683838 C-22.78503248 10.79199407 -22.45850508 8.04099844 -20.10131836 4.84790039 C-14.23673106 -0.3512543 -7.46823409 -0.01982696 0 0 Z M163.98876953 340.5871582 C159.11239216 346.57813612 156.40212741 351.12500358 156.52783203 358.8684082 C157.28857871 365.56297896 160.94072403 369.91539618 166.02001953 374.0480957 C171.72916095 377.97939045 176.9953778 377.9811831 183.80126953 377.2746582 C190.34007071 375.27102555 194.85799771 369.63121863 198.17626953 363.8996582 C199.91406551 356.6009151 198.98065775 351.09163289 195.35205078 344.5090332 C191.46750371 338.91215429 186.39548324 336.6432686 179.80126953 335.2746582 C173.72901609 335.2746582 168.71450783 336.70155116 163.98876953 340.5871582 Z M395.92626953 343.2121582 C391.6258779 349.40978144 390.99006793 354.86984354 391.80126953 362.2746582 C393.4230439 368.26906475 396.85031677 371.59692448 401.80126953 375.14575195 C406.44765261 377.7684174 411.59179786 377.875421 416.80126953 377.2746582 C423.98816415 375.10945946 428.49436626 370.2593093 432.17626953 363.8996582 C433.91463476 356.59852426 432.96784591 351.10812292 429.36767578 344.51293945 C426.39372324 340.26337635 422.73329495 337.91866668 417.80126953 336.2746582 C409.04385027 335.4116492 401.96033035 336.42383978 395.92626953 343.2121582 Z " fill="#3482F8" transform="translate(22.19873046875,47.725341796875)"/>
</svg>
