<?xml version="1.0" encoding="UTF-8"?>
<svg version="1.1" xmlns="http://www.w3.org/2000/svg" width="512" height="512">
<path d="M0 0 C1.59360655 0.28076336 3.18734579 0.56077521 4.78125 0.83984375 C32.08981974 5.95737009 57.10633846 18.30819345 81 32 C82.33851519 32.76436928 83.67705521 33.52869508 85.015625 34.29296875 C86.00046875 34.85628906 86.9853125 35.41960938 88 36 C88 36.66 88 37.32 88 38 C89.98 38.66 91.96 39.32 94 40 C94 40.66 94 41.32 94 42 C94.86625 42.433125 94.86625 42.433125 95.75 42.875 C97.83333333 43.91666667 99.91666667 44.95833333 102 46 C102 46.66 102 47.32 102 48 C102.53625 48.2475 103.0725 48.495 103.625 48.75 C106.5823982 50.30652537 109.29724051 52.03435673 112 54 C112 54.66 112 55.32 112 56 C112.66 56 113.32 56 114 56 C114 56.66 114 57.32 114 58 C114.56170898 58.2371875 115.12341797 58.474375 115.70214844 58.71875 C118.52582658 60.29319357 120.47614842 62.21684545 122.765625 64.5 C124.09980469 65.8303125 124.09980469 65.8303125 125.4609375 67.1875 C126.38132812 68.115625 127.30171875 69.04375 128.25 70 C129.18585938 70.928125 130.12171875 71.85625 131.0859375 72.8125 C131.97023438 73.699375 132.85453125 74.58625 133.765625 75.5 C134.57805664 76.3146875 135.39048828 77.129375 136.22753906 77.96875 C138 80 138 80 138 82 C138.66 82 139.32 82 140 82 C140 82.66 140 83.32 140 84 C140.66 84 141.32 84 142 84 C144.32019297 87.19026533 146.34643078 90.41726669 148 94 C148.66 94 149.32 94 150 94 C151.69140625 96.30078125 151.69140625 96.30078125 153.5625 99.3125 C154.18253906 100.29863281 154.80257813 101.28476563 155.44140625 102.30078125 C157 105 157 105 158 108 C158.66 108 159.32 108 160 108 C164.7539249 116.48232073 169.30158729 125.06435566 173.79394531 133.6875 C174.54037617 135.11871318 175.28924102 136.54866338 176.04199219 137.9765625 C189.56682567 163.66401602 195.47756109 191.40297535 199 220 C199.26127686 221.88525391 199.26127686 221.88525391 199.52783203 223.80859375 C200.03464087 227.87930472 200.16074931 231.92423466 200.16796875 236.0234375 C200.17220352 236.76259399 200.17643829 237.50175049 200.18080139 238.26330566 C200.19061419 240.63392948 200.19073522 243.00435962 200.1875 245.375 C200.18689575 246.18567932 200.1862915 246.99635864 200.18566895 247.831604 C200.16229174 259.34886768 199.91044538 270.62039058 198 282 C197.80664062 283.25296875 197.80664062 283.25296875 197.609375 284.53125 C194.62184423 303.78422607 189.17010967 321.917141 182 340 C181.41992188 341.49660156 181.41992188 341.49660156 180.828125 343.0234375 C177.12326399 352.28559003 172.52833089 361.12091982 168 370 C167.34 370 166.68 370 166 370 C165.71125 370.9075 165.4225 371.815 165.125 372.75 C164.23468224 375.32202908 163.28505587 377.61346766 162 380 C161.34 380 160.68 380 160 380 C159.34 381.98 158.68 383.96 158 386 C157.34 386 156.68 386 156 386 C155.34 387.98 154.68 389.96 154 392 C153.34 392 152.68 392 152 392 C151.71125 392.5775 151.4225 393.155 151.125 393.75 C150.08333333 395.83333333 149.04166667 397.91666667 148 400 C147.34 400 146.68 400 146 400 C146 400.66 146 401.32 146 402 C145.34 402 144.68 402 144 402 C143.62875 402.804375 143.62875 402.804375 143.25 403.625 C141.69347463 406.5823982 139.96564327 409.29724051 138 412 C137.34 412 136.68 412 136 412 C136 412.66 136 413.32 136 414 C135.34 414 134.68 414 134 414 C134 414.66 134 415.32 134 416 C133.34 416 132.68 416 132 416 C131.7525 416.61875 131.505 417.2375 131.25 417.875 C129.79371361 420.35068687 128.62187494 420.95125002 126 422 C126 422.66 126 423.32 126 424 C125.34 424 124.68 424 124 424 C124 424.66 124 425.32 124 426 C123.34 426 122.68 426 122 426 C122 426.66 122 427.32 122 428 C121.34 428 120.68 428 120 428 C120 428.66 120 429.32 120 430 C119.34 430 118.68 430 118 430 C118 430.66 118 431.32 118 432 C117.34 432 116.68 432 116 432 C116 432.66 116 433.32 116 434 C112.80973467 436.32019297 109.58273331 438.34643078 106 440 C106 440.66 106 441.32 106 442 C105.34 442 104.68 442 104 442 C104 442.66 104 443.32 104 444 C98.58823529 448 98.58823529 448 96 448 C96 448.66 96 449.32 96 450 C94.02 450.66 92.04 451.32 90 452 C90 452.66 90 453.32 90 454 C88.02 454.66 86.04 455.32 84 456 C84 456.66 84 457.32 84 458 C80.3491791 459.97461792 76.69442398 461.94174591 73.03710938 463.90429688 C71.64921188 464.65080742 70.26253949 465.39959912 68.87695312 466.15039062 C60.72719477 470.56575836 52.71232019 474.78858039 44 478 C42.95005859 478.45052734 42.95005859 478.45052734 41.87890625 478.91015625 C36.12856777 481.37173962 30.22775347 483.24435556 24.25 485.0625 C23.45287598 485.30790527 22.65575195 485.55331055 21.83447266 485.80615234 C19.23348063 486.58203268 16.62091725 487.29424806 14 488 C13.07632629 488.25833115 12.15265259 488.51666229 11.20098877 488.78282166 C0.01200662 491.56590144 -11.00110809 491.47337331 -22.46875 491.46875 C-24.63806347 491.47587153 -26.80737509 491.48357335 -28.97668457 491.49182129 C-33.50859821 491.50520387 -38.04033787 491.50686433 -42.57226562 491.50097656 C-48.31629493 491.49510456 -54.05947199 491.52559864 -59.8033371 491.56609344 C-64.28214844 491.5922356 -68.7607622 491.59482378 -73.23963928 491.59120178 C-75.35386789 491.5928702 -77.46810799 491.60228667 -79.58226013 491.62034607 C-98.07805149 491.76091263 -115.4902387 488.93005145 -132.875 482.4375 C-133.66261719 482.15970703 -134.45023438 481.88191406 -135.26171875 481.59570312 C-139.75992688 479.97321512 -144.00065292 478.07258526 -148.24902344 475.8815918 C-150.34553895 474.82602606 -152.4831499 473.99088074 -154.6875 473.1875 C-161.08913445 470.68379328 -166.99891919 467.32995534 -173 464 C-175.10346691 462.8528826 -177.20757997 461.70694881 -179.3125 460.5625 C-180.87520012 459.70869951 -182.43778119 458.85468083 -184 458 C-184 457.34 -184 456.68 -184 456 C-185.98 455.34 -187.96 454.68 -190 454 C-190 453.34 -190 452.68 -190 452 C-191.98 451.34 -193.96 450.68 -196 450 C-196 449.34 -196 448.68 -196 448 C-196.5775 447.71125 -197.155 447.4225 -197.75 447.125 C-199.83333333 446.08333333 -201.91666667 445.04166667 -204 444 C-204 443.34 -204 442.68 -204 442 C-204.66 442 -205.32 442 -206 442 C-206 441.34 -206 440.68 -206 440 C-206.53625 439.7525 -207.0725 439.505 -207.625 439.25 C-210.5823982 437.69347463 -213.29724051 435.96564327 -216 434 C-216 433.34 -216 432.68 -216 432 C-216.66 432 -217.32 432 -218 432 C-218 431.34 -218 430.68 -218 430 C-218.66 430 -219.32 430 -220 430 C-220 429.34 -220 428.68 -220 428 C-220.66 428 -221.32 428 -222 428 C-222 427.34 -222 426.68 -222 426 C-222.66 426 -223.32 426 -224 426 C-224 425.34 -224 424.68 -224 424 C-224.66 424 -225.32 424 -226 424 C-226 423.34 -226 422.68 -226 422 C-226.61875 421.7525 -227.2375 421.505 -227.875 421.25 C-230.35068687 419.79371361 -230.95125002 418.62187494 -232 416 C-232.66 416 -233.32 416 -234 416 C-234 415.34 -234 414.68 -234 414 C-234.66 414 -235.32 414 -236 414 C-236 413.34 -236 412.68 -236 412 C-236.66 412 -237.32 412 -238 412 C-240.32019297 408.80973467 -242.34643078 405.58273331 -244 402 C-244.66 402 -245.32 402 -246 402 C-246 401.34 -246 400.68 -246 400 C-246.66 400 -247.32 400 -248 400 C-252 394.58823529 -252 394.58823529 -252 392 C-252.66 392 -253.32 392 -254 392 C-254.66 390.02 -255.32 388.04 -256 386 C-256.66 386 -257.32 386 -258 386 C-258.66 384.02 -259.32 382.04 -260 380 C-260.66 380 -261.32 380 -262 380 C-262.67154933 378.71086513 -263.33708859 377.41859796 -264 376.125 C-264.37125 375.40570313 -264.7425 374.68640625 -265.125 373.9453125 C-266 372 -266 372 -266 370 C-266.66 370 -267.32 370 -268 370 C-281.02954134 344.76277097 -281.02954134 344.76277097 -285.33789062 331.95703125 C-286.05135328 329.84821244 -286.79811439 327.7527797 -287.546875 325.65625 C-293.72683038 308.09336909 -296.72891625 290.43786075 -299 272 C-299.17418457 270.74316406 -299.34836914 269.48632812 -299.52783203 268.19140625 C-300.03464087 264.12069528 -300.16074931 260.07576534 -300.16796875 255.9765625 C-300.17220352 255.23740601 -300.17643829 254.49824951 -300.18080139 253.73669434 C-300.19061419 251.36607052 -300.19073522 248.99564038 -300.1875 246.625 C-300.18689575 245.81432068 -300.1862915 245.00364136 -300.18566895 244.168396 C-300.16229819 232.65431121 -299.92515076 221.37518612 -298 210 C-297.86577637 209.15405273 -297.73155273 208.30810547 -297.59326172 207.43652344 C-295.55611957 194.6993091 -292.7763788 182.33154748 -289 170 C-288.52433594 168.40671875 -288.52433594 168.40671875 -288.0390625 166.78125 C-283.9598833 153.81155203 -277.90919824 141.64604241 -271.875 129.5 C-271.37226563 128.48518555 -270.86953125 127.47037109 -270.3515625 126.42480469 C-267.78034175 121.30435389 -265.1050242 116.34900865 -261.98486328 111.54101562 C-260.93562134 109.9586043 -260.93562134 109.9586043 -260 108 C-259.34 108 -258.68 108 -258 108 C-257.731875 107.44828125 -257.46375 106.8965625 -257.1875 106.328125 C-255.87203416 103.74911961 -254.46150838 101.24917932 -253 98.75 C-252.484375 97.85796875 -251.96875 96.9659375 -251.4375 96.046875 C-250.963125 95.37140625 -250.48875 94.6959375 -250 94 C-249.34 94 -248.68 94 -248 94 C-247.7525 93.46375 -247.505 92.9275 -247.25 92.375 C-245.69347463 89.4176018 -243.96564327 86.70275949 -242 84 C-241.34 84 -240.68 84 -240 84 C-240 83.34 -240 82.68 -240 82 C-239.34 82 -238.68 82 -238 82 C-237.7628125 81.43829102 -237.525625 80.87658203 -237.28125 80.29785156 C-235.70680643 77.47417342 -233.78315455 75.52385158 -231.5 73.234375 C-230.613125 72.34492187 -229.72625 71.45546875 -228.8125 70.5390625 C-227.884375 69.61867188 -226.95625 68.69828125 -226 67.75 C-225.071875 66.81414062 -224.14375 65.87828125 -223.1875 64.9140625 C-222.300625 64.02976562 -221.41375 63.14546875 -220.5 62.234375 C-219.6853125 61.42194336 -218.870625 60.60951172 -218.03125 59.77246094 C-216 58 -216 58 -214 58 C-214 57.34 -214 56.68 -214 56 C-213.34 56 -212.68 56 -212 56 C-212 55.34 -212 54.68 -212 54 C-210.3203125 52.4921875 -210.3203125 52.4921875 -208.125 50.875 C-207.40570313 50.33617187 -206.68640625 49.79734375 -205.9453125 49.2421875 C-204 48 -204 48 -202 48 C-202 47.34 -202 46.68 -202 46 C-196.58823529 42 -196.58823529 42 -194 42 C-194 41.34 -194 40.68 -194 40 C-192.02 39.34 -190.04 38.68 -188 38 C-188 37.34 -188 36.68 -188 36 C-182.80471481 33.09587724 -177.6030481 30.20375637 -172.39355469 27.32519531 C-170.92110984 26.50997391 -169.45007986 25.69218307 -167.98144531 24.87011719 C-146.7410131 12.9875933 -123.93392508 4.45178172 -100 0 C-99.071875 -0.18336914 -98.14375 -0.36673828 -97.1875 -0.55566406 C-65.44550143 -6.66227902 -31.67720715 -6.18730259 0 0 Z " fill="#2195F2" transform="translate(306,21)"/>
<path d="M0 0 C1.59360655 0.28076336 3.18734579 0.56077521 4.78125 0.83984375 C32.08981974 5.95737009 57.10633846 18.30819345 81 32 C82.33851519 32.76436928 83.67705521 33.52869508 85.015625 34.29296875 C86.00046875 34.85628906 86.9853125 35.41960938 88 36 C88 36.66 88 37.32 88 38 C89.98 38.66 91.96 39.32 94 40 C94 40.66 94 41.32 94 42 C94.86625 42.433125 94.86625 42.433125 95.75 42.875 C97.83333333 43.91666667 99.91666667 44.95833333 102 46 C102 46.66 102 47.32 102 48 C102.53625 48.2475 103.0725 48.495 103.625 48.75 C106.5823982 50.30652537 109.29724051 52.03435673 112 54 C112 54.66 112 55.32 112 56 C112.66 56 113.32 56 114 56 C114 56.66 114 57.32 114 58 C114.56170898 58.2371875 115.12341797 58.474375 115.70214844 58.71875 C118.52582658 60.29319357 120.47614842 62.21684545 122.765625 64.5 C124.09980469 65.8303125 124.09980469 65.8303125 125.4609375 67.1875 C126.38132812 68.115625 127.30171875 69.04375 128.25 70 C129.18585938 70.928125 130.12171875 71.85625 131.0859375 72.8125 C131.97023438 73.699375 132.85453125 74.58625 133.765625 75.5 C134.57805664 76.3146875 135.39048828 77.129375 136.22753906 77.96875 C138 80 138 80 138 82 C138.66 82 139.32 82 140 82 C140 82.66 140 83.32 140 84 C140.66 84 141.32 84 142 84 C144.32019297 87.19026533 146.34643078 90.41726669 148 94 C148.66 94 149.32 94 150 94 C151.69140625 96.30078125 151.69140625 96.30078125 153.5625 99.3125 C154.18253906 100.29863281 154.80257813 101.28476563 155.44140625 102.30078125 C157 105 157 105 158 108 C158.66 108 159.32 108 160 108 C164.7539249 116.48232073 169.30158729 125.06435566 173.79394531 133.6875 C174.54037617 135.11871318 175.28924102 136.54866338 176.04199219 137.9765625 C189.56682567 163.66401602 195.47756109 191.40297535 199 220 C199.26127686 221.88525391 199.26127686 221.88525391 199.52783203 223.80859375 C200.03464087 227.87930472 200.16074931 231.92423466 200.16796875 236.0234375 C200.17220352 236.76259399 200.17643829 237.50175049 200.18080139 238.26330566 C200.19061419 240.63392948 200.19073522 243.00435962 200.1875 245.375 C200.18689575 246.18567932 200.1862915 246.99635864 200.18566895 247.831604 C200.16229174 259.34886768 199.91044538 270.62039058 198 282 C197.80664062 283.25296875 197.80664062 283.25296875 197.609375 284.53125 C194.62184423 303.78422607 189.17010967 321.917141 182 340 C181.41992188 341.49660156 181.41992188 341.49660156 180.828125 343.0234375 C177.12326399 352.28559003 172.52833089 361.12091982 168 370 C167.34 370 166.68 370 166 370 C165.71125 370.9075 165.4225 371.815 165.125 372.75 C164.23468224 375.32202908 163.28505587 377.61346766 162 380 C161.34 380 160.68 380 160 380 C159.34 381.98 158.68 383.96 158 386 C157.34 386 156.68 386 156 386 C155.34 387.98 154.68 389.96 154 392 C153.34 392 152.68 392 152 392 C151.71125 392.5775 151.4225 393.155 151.125 393.75 C150.08333333 395.83333333 149.04166667 397.91666667 148 400 C147.34 400 146.68 400 146 400 C146 400.66 146 401.32 146 402 C145.34 402 144.68 402 144 402 C143.62875 402.804375 143.62875 402.804375 143.25 403.625 C141.69347463 406.5823982 139.96564327 409.29724051 138 412 C137.34 412 136.68 412 136 412 C136 412.66 136 413.32 136 414 C135.34 414 134.68 414 134 414 C134 414.66 134 415.32 134 416 C133.34 416 132.68 416 132 416 C131.7525 416.61875 131.505 417.2375 131.25 417.875 C129.79371361 420.35068687 128.62187494 420.95125002 126 422 C126 422.66 126 423.32 126 424 C125.34 424 124.68 424 124 424 C124 424.66 124 425.32 124 426 C123.34 426 122.68 426 122 426 C122 426.66 122 427.32 122 428 C121.34 428 120.68 428 120 428 C120 428.66 120 429.32 120 430 C119.34 430 118.68 430 118 430 C118 430.66 118 431.32 118 432 C117.34 432 116.68 432 116 432 C116 432.66 116 433.32 116 434 C112.80973467 436.32019297 109.58273331 438.34643078 106 440 C106 440.66 106 441.32 106 442 C105.34 442 104.68 442 104 442 C104 442.66 104 443.32 104 444 C98.58823529 448 98.58823529 448 96 448 C96 448.66 96 449.32 96 450 C94.02 450.66 92.04 451.32 90 452 C90 452.66 90 453.32 90 454 C88.02 454.66 86.04 455.32 84 456 C84 456.66 84 457.32 84 458 C80.3491791 459.97461792 76.69442398 461.94174591 73.03710938 463.90429688 C71.64921188 464.65080742 70.26253949 465.39959912 68.87695312 466.15039062 C60.72719477 470.56575836 52.71232019 474.78858039 44 478 C42.95005859 478.45052734 42.95005859 478.45052734 41.87890625 478.91015625 C36.12856777 481.37173962 30.22775347 483.24435556 24.25 485.0625 C23.45287598 485.30790527 22.65575195 485.55331055 21.83447266 485.80615234 C19.23348063 486.58203268 16.62091725 487.29424806 14 488 C13.07632629 488.25833115 12.15265259 488.51666229 11.20098877 488.78282166 C0.01200662 491.56590144 -11.00110809 491.47337331 -22.46875 491.46875 C-24.63806347 491.47587153 -26.80737509 491.48357335 -28.97668457 491.49182129 C-33.50859821 491.50520387 -38.04033787 491.50686433 -42.57226562 491.50097656 C-48.31629493 491.49510456 -54.05947199 491.52559864 -59.8033371 491.56609344 C-64.28214844 491.5922356 -68.7607622 491.59482378 -73.23963928 491.59120178 C-75.35386789 491.5928702 -77.46810799 491.60228667 -79.58226013 491.62034607 C-98.07805149 491.76091263 -115.4902387 488.93005145 -132.875 482.4375 C-133.66261719 482.15970703 -134.45023438 481.88191406 -135.26171875 481.59570312 C-139.75992688 479.97321512 -144.00065292 478.07258526 -148.24902344 475.8815918 C-150.34553895 474.82602606 -152.4831499 473.99088074 -154.6875 473.1875 C-161.08913445 470.68379328 -166.99891919 467.32995534 -173 464 C-175.10346691 462.8528826 -177.20757997 461.70694881 -179.3125 460.5625 C-180.87520012 459.70869951 -182.43778119 458.85468083 -184 458 C-184 457.34 -184 456.68 -184 456 C-185.98 455.34 -187.96 454.68 -190 454 C-190 453.34 -190 452.68 -190 452 C-191.98 451.34 -193.96 450.68 -196 450 C-196 449.34 -196 448.68 -196 448 C-196.5775 447.71125 -197.155 447.4225 -197.75 447.125 C-199.83333333 446.08333333 -201.91666667 445.04166667 -204 444 C-204 443.34 -204 442.68 -204 442 C-204.66 442 -205.32 442 -206 442 C-206 441.34 -206 440.68 -206 440 C-206.53625 439.7525 -207.0725 439.505 -207.625 439.25 C-210.5823982 437.69347463 -213.29724051 435.96564327 -216 434 C-216 433.34 -216 432.68 -216 432 C-216.66 432 -217.32 432 -218 432 C-218 431.34 -218 430.68 -218 430 C-218.66 430 -219.32 430 -220 430 C-220 429.34 -220 428.68 -220 428 C-220.66 428 -221.32 428 -222 428 C-222 427.34 -222 426.68 -222 426 C-222.66 426 -223.32 426 -224 426 C-224 425.34 -224 424.68 -224 424 C-224.66 424 -225.32 424 -226 424 C-226 423.34 -226 422.68 -226 422 C-226.61875 421.7525 -227.2375 421.505 -227.875 421.25 C-230.35068687 419.79371361 -230.95125002 418.62187494 -232 416 C-232.66 416 -233.32 416 -234 416 C-234 415.34 -234 414.68 -234 414 C-234.66 414 -235.32 414 -236 414 C-236 413.34 -236 412.68 -236 412 C-236.66 412 -237.32 412 -238 412 C-240.32019297 408.80973467 -242.34643078 405.58273331 -244 402 C-244.66 402 -245.32 402 -246 402 C-246 401.34 -246 400.68 -246 400 C-246.66 400 -247.32 400 -248 400 C-252 394.58823529 -252 394.58823529 -252 392 C-252.66 392 -253.32 392 -254 392 C-254.66 390.02 -255.32 388.04 -256 386 C-256.66 386 -257.32 386 -258 386 C-258.66 384.02 -259.32 382.04 -260 380 C-260.66 380 -261.32 380 -262 380 C-262.67154933 378.71086513 -263.33708859 377.41859796 -264 376.125 C-264.37125 375.40570313 -264.7425 374.68640625 -265.125 373.9453125 C-266 372 -266 372 -266 370 C-266.66 370 -267.32 370 -268 370 C-281.02954134 344.76277097 -281.02954134 344.76277097 -285.33789062 331.95703125 C-286.05135328 329.84821244 -286.79811439 327.7527797 -287.546875 325.65625 C-293.72683038 308.09336909 -296.72891625 290.43786075 -299 272 C-299.17418457 270.74316406 -299.34836914 269.48632812 -299.52783203 268.19140625 C-300.03464087 264.12069528 -300.16074931 260.07576534 -300.16796875 255.9765625 C-300.17220352 255.23740601 -300.17643829 254.49824951 -300.18080139 253.73669434 C-300.19061419 251.36607052 -300.19073522 248.99564038 -300.1875 246.625 C-300.18689575 245.81432068 -300.1862915 245.00364136 -300.18566895 244.168396 C-300.16229819 232.65431121 -299.92515076 221.37518612 -298 210 C-297.86577637 209.15405273 -297.73155273 208.30810547 -297.59326172 207.43652344 C-295.55611957 194.6993091 -292.7763788 182.33154748 -289 170 C-288.52433594 168.40671875 -288.52433594 168.40671875 -288.0390625 166.78125 C-283.9598833 153.81155203 -277.90919824 141.64604241 -271.875 129.5 C-271.37226563 128.48518555 -270.86953125 127.47037109 -270.3515625 126.42480469 C-267.78034175 121.30435389 -265.1050242 116.34900865 -261.98486328 111.54101562 C-260.93562134 109.9586043 -260.93562134 109.9586043 -260 108 C-259.34 108 -258.68 108 -258 108 C-257.731875 107.44828125 -257.46375 106.8965625 -257.1875 106.328125 C-255.87203416 103.74911961 -254.46150838 101.24917932 -253 98.75 C-252.484375 97.85796875 -251.96875 96.9659375 -251.4375 96.046875 C-250.963125 95.37140625 -250.48875 94.6959375 -250 94 C-249.34 94 -248.68 94 -248 94 C-247.7525 93.46375 -247.505 92.9275 -247.25 92.375 C-245.69347463 89.4176018 -243.96564327 86.70275949 -242 84 C-241.34 84 -240.68 84 -240 84 C-240 83.34 -240 82.68 -240 82 C-239.34 82 -238.68 82 -238 82 C-237.7628125 81.43829102 -237.525625 80.87658203 -237.28125 80.29785156 C-235.70680643 77.47417342 -233.78315455 75.52385158 -231.5 73.234375 C-230.613125 72.34492187 -229.72625 71.45546875 -228.8125 70.5390625 C-227.884375 69.61867188 -226.95625 68.69828125 -226 67.75 C-225.071875 66.81414062 -224.14375 65.87828125 -223.1875 64.9140625 C-222.300625 64.02976562 -221.41375 63.14546875 -220.5 62.234375 C-219.6853125 61.42194336 -218.870625 60.60951172 -218.03125 59.77246094 C-216 58 -216 58 -214 58 C-214 57.34 -214 56.68 -214 56 C-213.34 56 -212.68 56 -212 56 C-212 55.34 -212 54.68 -212 54 C-210.3203125 52.4921875 -210.3203125 52.4921875 -208.125 50.875 C-207.40570313 50.33617187 -206.68640625 49.79734375 -205.9453125 49.2421875 C-204 48 -204 48 -202 48 C-202 47.34 -202 46.68 -202 46 C-196.58823529 42 -196.58823529 42 -194 42 C-194 41.34 -194 40.68 -194 40 C-192.02 39.34 -190.04 38.68 -188 38 C-188 37.34 -188 36.68 -188 36 C-182.80471481 33.09587724 -177.6030481 30.20375637 -172.39355469 27.32519531 C-170.92110984 26.50997391 -169.45007986 25.69218307 -167.98144531 24.87011719 C-146.7410131 12.9875933 -123.93392508 4.45178172 -100 0 C-99.071875 -0.18336914 -98.14375 -0.36673828 -97.1875 -0.55566406 C-65.44550143 -6.66227902 -31.67720715 -6.18730259 0 0 Z M-226 78 C-229.18675734 81.54195321 -232.12846625 85.19900899 -235 89 C-235.47614746 89.62148926 -235.95229492 90.24297852 -236.44287109 90.88330078 C-261.0098768 123.11172563 -276.5286731 160.00978253 -283 200 C-283.19480957 201.13066895 -283.19480957 201.13066895 -283.39355469 202.28417969 C-292.85436452 258.81053087 -277.08243802 321.68716407 -244.39746094 368.28466797 C-240.75390219 373.31619693 -236.92937104 378.18943179 -233 383 C-232.48937012 383.62632324 -231.97874023 384.25264648 -231.45263672 384.89794922 C-221.36700729 397.16863626 -210.53426452 408.21249525 -198 418 C-197.03964844 418.77730469 -196.07929688 419.55460937 -195.08984375 420.35546875 C-185.88166882 427.6777722 -176.0861367 433.95705057 -166 440 C-165.36900391 440.37898438 -164.73800781 440.75796875 -164.08789062 441.1484375 C-140.06003067 455.33580875 -112.36865444 463.40698058 -85 468 C-83.97350342 468.17789063 -83.97350342 468.17789063 -82.92626953 468.359375 C-49.80322827 473.83506595 -12.71222797 470.57074266 19 460 C17.44332539 456.27571543 15.15977084 453.91317604 12.31771851 451.07720947 C11.83823403 450.59601615 11.35874955 450.11482282 10.86473525 449.61904788 C9.25877535 448.00979687 7.64577761 446.40779294 6.03271484 444.80566406 C4.87929556 443.65280898 3.7263166 442.49951322 2.57374573 441.34580994 C-0.55587072 438.2156193 -3.69161855 435.09163658 -6.82849169 431.96872044 C-10.10589679 428.70381161 -13.37764497 425.43324414 -16.6499939 422.16326904 C-22.84726414 415.9722168 -29.04961534 409.78628079 -35.2538017 403.60216022 C-42.31690432 396.56140661 -49.37433373 389.51497812 -56.43128896 382.46806383 C-70.94788258 367.97237947 -85.47159681 353.48384748 -100 339 C-99.05390869 339.02755371 -98.10781738 339.05510742 -97.13305664 339.08349609 C-95.88387451 339.10492676 -94.63469238 339.12635742 -93.34765625 339.1484375 C-92.11281494 339.17599121 -90.87797363 339.20354492 -89.60571289 339.23193359 C-83.95950935 338.86874764 -80.06944932 336.86943858 -76 333 C-72.14861633 327.83862188 -70.23072799 322.55353423 -70.640625 316.09765625 C-71.58757888 310.57032764 -74.0626427 305.9373573 -78 302 C-81.31610867 299.99361493 -84.73915941 298.41282361 -88.421875 297.20703125 C-91.75482238 295.64660589 -93.76884894 293.52039711 -96.3125 290.875 C-97.19550781 289.96492188 -98.07851562 289.05484375 -98.98828125 288.1171875 C-99.65214844 287.41851562 -100.31601563 286.71984375 -101 286 C-100.45171162 286.16251975 -99.90342323 286.3250395 -99.33852005 286.49248409 C-96.68732479 287.06785815 -94.29738009 287.12287392 -91.5836792 287.12025452 C-89.93467117 287.12231651 -89.93467117 287.12231651 -88.25234985 287.12442017 C-87.05113495 287.12082489 -85.84992004 287.11722961 -84.61230469 287.11352539 C-83.34375641 287.11367142 -82.07520813 287.11381744 -80.76821899 287.1139679 C-77.29334589 287.11425474 -73.81850732 287.10837617 -70.34364223 287.10139394 C-66.7108064 287.0951417 -63.07796978 287.09455512 -59.44512939 287.09336853 C-52.56747412 287.09026074 -45.68983475 287.08205477 -38.81218648 287.07201904 C-30.98153149 287.06084078 -23.15087573 287.05534313 -15.32021475 287.05032361 C0.78653307 287.03987171 16.89326388 287.02208144 33 287 C33 280.07 33 273.14 33 266 C-27.39 265.505 -27.39 265.505 -89 265 C-88.2291293 261.91651718 -87.6113675 260.01458142 -86.15234375 257.328125 C-85.79462891 256.66425781 -85.43691406 256.00039063 -85.06835938 255.31640625 C-84.69517578 254.63449219 -84.32199219 253.95257813 -83.9375 253.25 C-83.37192383 252.20392578 -83.37192383 252.20392578 -82.79492188 251.13671875 C-81.86726612 249.42231698 -80.93416546 247.71086339 -80 246 C-78.46690186 245.99453156 -78.46690186 245.99453156 -76.90283203 245.98895264 C-67.25134457 245.95194502 -57.60017447 245.89410938 -47.94892883 245.81609726 C-42.98758661 245.77665772 -38.02642094 245.74445194 -33.06494141 245.72900391 C-28.27310175 245.71381414 -23.48174759 245.67932738 -18.69012451 245.63169098 C-16.86582672 245.6169011 -15.0414596 245.60896036 -13.21710205 245.60811615 C-10.65332825 245.60573748 -8.09088643 245.57858698 -5.52734375 245.54589844 C-4.40632011 245.55344398 -4.40632011 245.55344398 -3.26264954 245.56114197 C2.95049923 245.43928439 8.27192899 243.53402115 12.87402344 239.25927734 C16.76065319 233.60138904 20.05144543 227.69560721 23.25 221.625 C24.40159831 219.46965363 25.55394775 217.31470842 26.70703125 215.16015625 C27.2685791 214.10715332 27.83012695 213.05415039 28.40869141 211.96923828 C30.5472054 207.97896409 32.7331571 204.01668687 34.9375 200.0625 C35.51310669 199.02379761 35.51310669 199.02379761 36.1003418 197.96411133 C38.59273787 193.47901099 41.13373622 189.02409421 43.6953125 184.578125 C44.33476807 183.45913818 44.97422363 182.34015137 45.63305664 181.18725586 C46.89375363 178.98219266 48.1634111 176.78222181 49.44311523 174.58813477 C50.02005127 173.57549561 50.5969873 172.56285645 51.19140625 171.51953125 C51.70904541 170.62339111 52.22668457 169.72725098 52.76000977 168.80395508 C54.40438002 165.428026 54.40438002 165.428026 55 159 C95.92 199.92 136.84 240.84 179 283 C181.94781551 280.05218449 181.95160866 276.53490982 182.5625 272.5625 C182.75102539 271.42651367 182.75102539 271.42651367 182.94335938 270.26757812 C184.78138278 258.80639554 185.24050815 247.40542731 185.25 235.8125 C185.25067474 235.06633423 185.25134949 234.32016846 185.25204468 233.5513916 C185.16150624 170.09325626 158.95816266 111.01756833 114.4375 66.1875 C108.59041428 60.38824471 102.56414935 54.98588393 96 50 C95.44376953 49.57267578 94.88753906 49.14535156 94.31445312 48.70507812 C85.25951258 41.77377185 75.94116777 35.58267783 66 30 C65.28360352 29.59394531 64.56720703 29.18789063 63.82910156 28.76953125 C29.27850966 9.35069447 -9.98174823 -0.51175432 -49.5625 -0.3125 C-50.34203033 -0.31034485 -51.12156067 -0.3081897 -51.92471313 -0.30596924 C-119.27903903 -0.00924281 -180.24333932 29.27033175 -226 78 Z " fill="#1B7CCA" transform="translate(306,21)"/>
<path d="M0 0 C1.59360655 0.28076336 3.18734579 0.56077521 4.78125 0.83984375 C32.08981974 5.95737009 57.10633846 18.30819345 81 32 C82.33851519 32.76436928 83.67705521 33.52869508 85.015625 34.29296875 C86.00046875 34.85628906 86.9853125 35.41960938 88 36 C88 36.66 88 37.32 88 38 C89.98 38.66 91.96 39.32 94 40 C94 40.66 94 41.32 94 42 C94.86625 42.433125 94.86625 42.433125 95.75 42.875 C97.83333333 43.91666667 99.91666667 44.95833333 102 46 C102 46.66 102 47.32 102 48 C102.53625 48.2475 103.0725 48.495 103.625 48.75 C106.5823982 50.30652537 109.29724051 52.03435673 112 54 C112 54.66 112 55.32 112 56 C112.66 56 113.32 56 114 56 C114 56.66 114 57.32 114 58 C114.56170898 58.2371875 115.12341797 58.474375 115.70214844 58.71875 C118.52582658 60.29319357 120.47614842 62.21684545 122.765625 64.5 C124.09980469 65.8303125 124.09980469 65.8303125 125.4609375 67.1875 C126.38132812 68.115625 127.30171875 69.04375 128.25 70 C129.18585938 70.928125 130.12171875 71.85625 131.0859375 72.8125 C131.97023438 73.699375 132.85453125 74.58625 133.765625 75.5 C134.57805664 76.3146875 135.39048828 77.129375 136.22753906 77.96875 C138 80 138 80 138 82 C138.66 82 139.32 82 140 82 C140 82.66 140 83.32 140 84 C140.66 84 141.32 84 142 84 C144.32019297 87.19026533 146.34643078 90.41726669 148 94 C148.66 94 149.32 94 150 94 C151.69140625 96.30078125 151.69140625 96.30078125 153.5625 99.3125 C154.18253906 100.29863281 154.80257813 101.28476563 155.44140625 102.30078125 C157 105 157 105 158 108 C158.66 108 159.32 108 160 108 C164.7539249 116.48232073 169.30158729 125.06435566 173.79394531 133.6875 C174.54037617 135.11871318 175.28924102 136.54866338 176.04199219 137.9765625 C189.56682567 163.66401602 195.47756109 191.40297535 199 220 C199.26127686 221.88525391 199.26127686 221.88525391 199.52783203 223.80859375 C200.03464087 227.87930472 200.16074931 231.92423466 200.16796875 236.0234375 C200.17220352 236.76259399 200.17643829 237.50175049 200.18080139 238.26330566 C200.19061419 240.63392948 200.19073522 243.00435962 200.1875 245.375 C200.18689575 246.18567932 200.1862915 246.99635864 200.18566895 247.831604 C200.16229174 259.34886768 199.91044538 270.62039058 198 282 C197.80664062 283.25296875 197.80664062 283.25296875 197.609375 284.53125 C194.62184423 303.78422607 189.17010967 321.917141 182 340 C181.41992188 341.49660156 181.41992188 341.49660156 180.828125 343.0234375 C177.12326399 352.28559003 172.52833089 361.12091982 168 370 C167.34 370 166.68 370 166 370 C165.71125 370.9075 165.4225 371.815 165.125 372.75 C164.23468224 375.32202908 163.28505587 377.61346766 162 380 C161.34 380 160.68 380 160 380 C159.34 381.98 158.68 383.96 158 386 C157.34 386 156.68 386 156 386 C155.34 387.98 154.68 389.96 154 392 C153.34 392 152.68 392 152 392 C151.71125 392.5775 151.4225 393.155 151.125 393.75 C150.08333333 395.83333333 149.04166667 397.91666667 148 400 C147.34 400 146.68 400 146 400 C146 400.66 146 401.32 146 402 C145.34 402 144.68 402 144 402 C143.62875 402.804375 143.62875 402.804375 143.25 403.625 C141.69347463 406.5823982 139.96564327 409.29724051 138 412 C137.34 412 136.68 412 136 412 C136 412.66 136 413.32 136 414 C135.34 414 134.68 414 134 414 C134 414.66 134 415.32 134 416 C133.34 416 132.68 416 132 416 C131.7525 416.61875 131.505 417.2375 131.25 417.875 C129.79371361 420.35068687 128.62187494 420.95125002 126 422 C126 422.66 126 423.32 126 424 C125.34 424 124.68 424 124 424 C124 424.66 124 425.32 124 426 C123.34 426 122.68 426 122 426 C122 426.66 122 427.32 122 428 C121.34 428 120.68 428 120 428 C120 428.66 120 429.32 120 430 C119.34 430 118.68 430 118 430 C118 430.66 118 431.32 118 432 C117.34 432 116.68 432 116 432 C116 432.66 116 433.32 116 434 C112.80973467 436.32019297 109.58273331 438.34643078 106 440 C106 440.66 106 441.32 106 442 C105.34 442 104.68 442 104 442 C104 442.66 104 443.32 104 444 C98.58823529 448 98.58823529 448 96 448 C96 448.66 96 449.32 96 450 C94.02 450.66 92.04 451.32 90 452 C90 452.66 90 453.32 90 454 C88.02 454.66 86.04 455.32 84 456 C84 456.66 84 457.32 84 458 C80.3491791 459.97461792 76.69442398 461.94174591 73.03710938 463.90429688 C71.64921188 464.65080742 70.26253949 465.39959912 68.87695312 466.15039062 C60.72719477 470.56575836 52.71232019 474.78858039 44 478 C42.95005859 478.45052734 42.95005859 478.45052734 41.87890625 478.91015625 C36.12856777 481.37173962 30.22775347 483.24435556 24.25 485.0625 C23.45287598 485.30790527 22.65575195 485.55331055 21.83447266 485.80615234 C19.23348063 486.58203268 16.62091725 487.29424806 14 488 C13.07632629 488.25833115 12.15265259 488.51666229 11.20098877 488.78282166 C0.01200662 491.56590144 -11.00110809 491.47337331 -22.46875 491.46875 C-24.63806347 491.47587153 -26.80737509 491.48357335 -28.97668457 491.49182129 C-33.50859821 491.50520387 -38.04033787 491.50686433 -42.57226562 491.50097656 C-48.31629493 491.49510456 -54.05947199 491.52559864 -59.8033371 491.56609344 C-64.28214844 491.5922356 -68.7607622 491.59482378 -73.23963928 491.59120178 C-75.35386789 491.5928702 -77.46810799 491.60228667 -79.58226013 491.62034607 C-98.07805149 491.76091263 -115.4902387 488.93005145 -132.875 482.4375 C-133.66261719 482.15970703 -134.45023438 481.88191406 -135.26171875 481.59570312 C-139.75992688 479.97321512 -144.00065292 478.07258526 -148.24902344 475.8815918 C-150.34553895 474.82602606 -152.4831499 473.99088074 -154.6875 473.1875 C-161.08913445 470.68379328 -166.99891919 467.32995534 -173 464 C-175.10346691 462.8528826 -177.20757997 461.70694881 -179.3125 460.5625 C-180.87520012 459.70869951 -182.43778119 458.85468083 -184 458 C-184 457.34 -184 456.68 -184 456 C-185.98 455.34 -187.96 454.68 -190 454 C-190 453.34 -190 452.68 -190 452 C-191.98 451.34 -193.96 450.68 -196 450 C-196 449.34 -196 448.68 -196 448 C-196.5775 447.71125 -197.155 447.4225 -197.75 447.125 C-199.83333333 446.08333333 -201.91666667 445.04166667 -204 444 C-204 443.34 -204 442.68 -204 442 C-204.66 442 -205.32 442 -206 442 C-206 441.34 -206 440.68 -206 440 C-206.53625 439.7525 -207.0725 439.505 -207.625 439.25 C-210.5823982 437.69347463 -213.29724051 435.96564327 -216 434 C-216 433.34 -216 432.68 -216 432 C-216.66 432 -217.32 432 -218 432 C-218 431.34 -218 430.68 -218 430 C-218.66 430 -219.32 430 -220 430 C-220 429.34 -220 428.68 -220 428 C-220.66 428 -221.32 428 -222 428 C-222 427.34 -222 426.68 -222 426 C-222.66 426 -223.32 426 -224 426 C-224 425.34 -224 424.68 -224 424 C-224.66 424 -225.32 424 -226 424 C-226 423.34 -226 422.68 -226 422 C-226.61875 421.7525 -227.2375 421.505 -227.875 421.25 C-230.35068687 419.79371361 -230.95125002 418.62187494 -232 416 C-232.66 416 -233.32 416 -234 416 C-234 415.34 -234 414.68 -234 414 C-234.66 414 -235.32 414 -236 414 C-236 413.34 -236 412.68 -236 412 C-236.66 412 -237.32 412 -238 412 C-240.32019297 408.80973467 -242.34643078 405.58273331 -244 402 C-244.66 402 -245.32 402 -246 402 C-246 401.34 -246 400.68 -246 400 C-246.66 400 -247.32 400 -248 400 C-252 394.58823529 -252 394.58823529 -252 392 C-252.66 392 -253.32 392 -254 392 C-254.66 390.02 -255.32 388.04 -256 386 C-256.66 386 -257.32 386 -258 386 C-258.66 384.02 -259.32 382.04 -260 380 C-260.66 380 -261.32 380 -262 380 C-262.67154933 378.71086513 -263.33708859 377.41859796 -264 376.125 C-264.37125 375.40570313 -264.7425 374.68640625 -265.125 373.9453125 C-266 372 -266 372 -266 370 C-266.66 370 -267.32 370 -268 370 C-281.02954134 344.76277097 -281.02954134 344.76277097 -285.33789062 331.95703125 C-286.05135328 329.84821244 -286.79811439 327.7527797 -287.546875 325.65625 C-293.72683038 308.09336909 -296.72891625 290.43786075 -299 272 C-299.17418457 270.74316406 -299.34836914 269.48632812 -299.52783203 268.19140625 C-300.03464087 264.12069528 -300.16074931 260.07576534 -300.16796875 255.9765625 C-300.17220352 255.23740601 -300.17643829 254.49824951 -300.18080139 253.73669434 C-300.19061419 251.36607052 -300.19073522 248.99564038 -300.1875 246.625 C-300.18689575 245.81432068 -300.1862915 245.00364136 -300.18566895 244.168396 C-300.16229819 232.65431121 -299.92515076 221.37518612 -298 210 C-297.86577637 209.15405273 -297.73155273 208.30810547 -297.59326172 207.43652344 C-295.55611957 194.6993091 -292.7763788 182.33154748 -289 170 C-288.52433594 168.40671875 -288.52433594 168.40671875 -288.0390625 166.78125 C-283.9598833 153.81155203 -277.90919824 141.64604241 -271.875 129.5 C-271.37226563 128.48518555 -270.86953125 127.47037109 -270.3515625 126.42480469 C-267.78034175 121.30435389 -265.1050242 116.34900865 -261.98486328 111.54101562 C-260.93562134 109.9586043 -260.93562134 109.9586043 -260 108 C-259.34 108 -258.68 108 -258 108 C-257.731875 107.44828125 -257.46375 106.8965625 -257.1875 106.328125 C-255.87203416 103.74911961 -254.46150838 101.24917932 -253 98.75 C-252.484375 97.85796875 -251.96875 96.9659375 -251.4375 96.046875 C-250.963125 95.37140625 -250.48875 94.6959375 -250 94 C-249.34 94 -248.68 94 -248 94 C-247.7525 93.46375 -247.505 92.9275 -247.25 92.375 C-245.69347463 89.4176018 -243.96564327 86.70275949 -242 84 C-241.34 84 -240.68 84 -240 84 C-240 83.34 -240 82.68 -240 82 C-239.34 82 -238.68 82 -238 82 C-237.7628125 81.43829102 -237.525625 80.87658203 -237.28125 80.29785156 C-235.70680643 77.47417342 -233.78315455 75.52385158 -231.5 73.234375 C-230.613125 72.34492187 -229.72625 71.45546875 -228.8125 70.5390625 C-227.884375 69.61867188 -226.95625 68.69828125 -226 67.75 C-225.071875 66.81414062 -224.14375 65.87828125 -223.1875 64.9140625 C-222.300625 64.02976562 -221.41375 63.14546875 -220.5 62.234375 C-219.6853125 61.42194336 -218.870625 60.60951172 -218.03125 59.77246094 C-216 58 -216 58 -214 58 C-214 57.34 -214 56.68 -214 56 C-213.34 56 -212.68 56 -212 56 C-212 55.34 -212 54.68 -212 54 C-210.3203125 52.4921875 -210.3203125 52.4921875 -208.125 50.875 C-207.40570313 50.33617187 -206.68640625 49.79734375 -205.9453125 49.2421875 C-204 48 -204 48 -202 48 C-202 47.34 -202 46.68 -202 46 C-196.58823529 42 -196.58823529 42 -194 42 C-194 41.34 -194 40.68 -194 40 C-192.02 39.34 -190.04 38.68 -188 38 C-188 37.34 -188 36.68 -188 36 C-182.80471481 33.09587724 -177.6030481 30.20375637 -172.39355469 27.32519531 C-170.92110984 26.50997391 -169.45007986 25.69218307 -167.98144531 24.87011719 C-146.7410131 12.9875933 -123.93392508 4.45178172 -100 0 C-99.071875 -0.18336914 -98.14375 -0.36673828 -97.1875 -0.55566406 C-65.44550143 -6.66227902 -31.67720715 -6.18730259 0 0 Z M-226 78 C-229.18675734 81.54195321 -232.12846625 85.19900899 -235 89 C-235.47614746 89.62148926 -235.95229492 90.24297852 -236.44287109 90.88330078 C-261.0098768 123.11172563 -276.5286731 160.00978253 -283 200 C-283.19480957 201.13066895 -283.19480957 201.13066895 -283.39355469 202.28417969 C-292.85436452 258.81053087 -277.08243802 321.68716407 -244.39746094 368.28466797 C-240.75390219 373.31619693 -236.92937104 378.18943179 -233 383 C-232.48937012 383.62632324 -231.97874023 384.25264648 -231.45263672 384.89794922 C-221.36700729 397.16863626 -210.53426452 408.21249525 -198 418 C-197.03964844 418.77730469 -196.07929688 419.55460937 -195.08984375 420.35546875 C-185.88166882 427.6777722 -176.0861367 433.95705057 -166 440 C-165.36900391 440.37898438 -164.73800781 440.75796875 -164.08789062 441.1484375 C-140.06003067 455.33580875 -112.36865444 463.40698058 -85 468 C-83.97350342 468.17789063 -83.97350342 468.17789063 -82.92626953 468.359375 C-24.01429865 478.09832812 38.97394905 460.73358085 87.03930664 426.39111328 C97.70095665 418.65007154 107.44254316 410.04401201 117 401 C117.680625 400.36191406 118.36125 399.72382813 119.0625 399.06640625 C123.67853349 394.6106517 127.70165872 389.69644046 131.67529297 384.66650391 C132.59120537 383.51427057 133.5152689 382.36848672 134.44580078 381.22802734 C173.20527236 333.69282635 189.69934533 271.94269636 184.49609375 211.265625 C178.19571715 150.92020526 148.24572087 93.21634385 101.5 54.25 C99.67929604 52.8171383 97.84502182 51.40141002 96 50 C95.44376953 49.57267578 94.88753906 49.14535156 94.31445312 48.70507812 C85.25951258 41.77377185 75.94116777 35.58267783 66 30 C65.28360352 29.59394531 64.56720703 29.18789063 63.82910156 28.76953125 C29.27850966 9.35069447 -9.98174823 -0.51175432 -49.5625 -0.3125 C-50.34203033 -0.31034485 -51.12156067 -0.3081897 -51.92471313 -0.30596924 C-119.27903903 -0.00924281 -180.24333932 29.27033175 -226 78 Z " fill="#000000" transform="translate(306,21)"/>
<path d="M0 0 C11.22 0 22.44 0 34 0 C37.33333333 6.66666667 40.66666667 13.33333333 44 20 C44.80968074 20.00146656 45.61936148 20.00293312 46.453578 20.00444412 C66.150111 20.04148726 85.84647158 20.10046882 105.5428648 20.18390274 C115.06788607 20.22372105 124.59282439 20.25609934 134.11791992 20.27099609 C142.41949181 20.28399816 150.72088139 20.31092575 159.02235061 20.35461307 C163.41841891 20.3772605 167.81426209 20.39290872 172.21039391 20.39188385 C176.34814951 20.39113917 180.48540682 20.4090123 184.62303352 20.44116783 C186.14155175 20.44968688 187.66012574 20.45140315 189.17865753 20.44580269 C191.25316691 20.43917083 193.32608707 20.45705986 195.4004364 20.48101807 C197.14124245 20.48654882 197.14124245 20.48654882 198.9172163 20.49219131 C202.65083103 21.10720754 204.3145784 22.3863515 207 25 C208.69406403 28.38812806 208.68258931 31.36324226 208 35 C205.96018798 39.70287855 203.38985843 44.07881298 200.8125 48.5 C200.07733002 49.78979848 199.34403554 51.08066765 198.61254883 52.37255859 C197.12680814 54.99494319 195.63428527 57.61328665 194.13769531 60.22949219 C191.05482462 65.64095443 188.12658187 71.13457556 185.1875 76.625 C183.63062011 79.49846811 182.06857798 82.36904946 180.50390625 85.23828125 C179.49970757 87.08235519 178.49971575 88.92872612 177.50390625 90.77734375 C176.08331825 93.40373589 174.63905207 96.01562289 173.1875 98.625 C172.57588013 99.770896 172.57588013 99.770896 171.9519043 100.93994141 C168.46169532 107.11669741 163.83494201 111.721686 157 114 C154.38361054 114.03832423 151.79702795 114.0188575 149.18310547 113.95141602 C147.53418392 113.91866449 145.88524695 113.88668272 144.23629761 113.85536194 C143.36190914 113.83771349 142.48752068 113.82006504 141.58663559 113.80188179 C135.97640593 113.70290811 130.36528093 113.67856167 124.75434685 113.64428806 C119.82638884 113.61000163 114.90210874 113.54693086 109.97558594 113.4206543 C105.20527091 113.29986579 100.43995086 113.25794863 95.66818619 113.26872063 C93.85545718 113.25891436 92.04264307 113.22096351 90.23113632 113.15368843 C81.90170368 112.76820712 81.90170368 112.76820712 74 115 C69.44454717 119.35736852 67.04558075 125.14292344 65 131 C65 131.99 65 132.98 65 134 C125.39 134.495 125.39 134.495 187 135 C187 141.93 187 148.86 187 156 C170.18830211 156.09269998 153.3767067 156.16403154 136.56481171 156.20724869 C128.75828842 156.22785088 120.95192711 156.2559264 113.14550781 156.30175781 C106.33933478 156.34169765 99.5332791 156.36744984 92.72699213 156.37635398 C89.1249504 156.38155672 85.5232443 156.39373543 81.92131042 156.42292023 C77.89465615 156.45527998 73.86858085 156.45595485 69.84179688 156.45410156 C68.65496307 156.46848267 67.46812927 156.48286377 66.24533081 156.49768066 C58.93476453 156.46129676 52.99724973 155.723752 47.4842453 150.58795547 C43.44547335 146.05531756 41.71363142 141.7064362 41.6875 135.6875 C41.67074219 134.80449219 41.65398437 133.92148437 41.63671875 133.01171875 C42.53907228 125.53091688 46.39577799 119.12961567 50.0625 112.6875 C50.50916016 111.89021484 50.95582031 111.09292969 51.41601562 110.27148438 C53.19668456 107.10673794 54.98437285 104.02344072 57 101 C56.64953052 96.81971742 54.91866281 93.44174076 53.078125 89.71484375 C52.78178162 89.10967422 52.48543823 88.5045047 52.18011475 87.8809967 C51.54126167 86.5772806 50.89992282 85.27478021 50.25634766 83.97338867 C48.53827499 80.49764681 46.83993631 77.01228677 45.140625 73.52734375 C44.79350464 72.81637543 44.44638428 72.1054071 44.08874512 71.37289429 C40.63782394 64.28901715 37.30486289 57.15295743 34 50 C33.46640869 48.8452417 32.93281738 47.6904834 32.38305664 46.50073242 C31.37663656 44.32044601 30.37082227 42.13987983 29.36572266 39.95898438 C27.48480831 35.88378203 25.58843175 31.81589476 23.6875 27.75 C22.800625 25.8525 21.91375 23.955 21 22 C14.07 21.67 7.14 21.34 0 21 C0 14.07 0 7.14 0 0 Z " fill="#FEFEFE" transform="translate(152,152)"/>
<path d="M0 0 C5.26090735 3.15059988 9.14304455 7.36190749 11.51171875 13.0546875 C12.41772627 19.56226077 12.48063972 25.45346911 8.88671875 31.1171875 C5.23699131 35.80846452 1.43847333 38.85825854 -4.48828125 40.0546875 C-11.78901978 40.75642207 -16.91103217 39.30086716 -23.17578125 35.3671875 C-27.61380509 30.92916366 -29.71253031 26.35528337 -29.92578125 20.0546875 C-29.65034738 14.44272237 -28.76560193 9.53003606 -24.87109375 5.296875 C-17.73262033 -1.04503057 -9.37943781 -3.5633029 0 0 Z " fill="#FCFDFE" transform="translate(327.48828125,319.9453125)"/>
<path d="M0 0 C5.36900596 2.34246206 8.79687383 6.33090732 11.6484375 11.3828125 C13.64388313 17.62623134 13.35104563 23.55286816 10.7734375 29.5703125 C7.68447844 35.14784139 3.59252975 38.17969691 -2.3515625 40.3828125 C-8.63466259 41.49544481 -13.75739155 40.50263861 -19.3515625 37.3828125 C-23.79910043 34.21821821 -26.64007924 31.6123447 -28.3515625 26.3828125 C-29.04509033 19.46679889 -29.06272713 13.36856191 -25.3515625 7.3828125 C-18.08060523 -0.18671065 -10.44916173 -2.74247102 0 0 Z " fill="#FDFDFE" transform="translate(222.3515625,319.6171875)"/>
<path d="M0 0 C6.6 0 13.2 0 20 0 C24.42004538 8.7597263 28.79631924 17.53917921 33.0625 26.375 C33.46847412 27.20104736 33.87444824 28.02709473 34.29272461 28.87817383 C34.66147705 29.64798584 35.03022949 30.41779785 35.41015625 31.2109375 C35.74152588 31.89462402 36.07289551 32.57831055 36.41430664 33.28271484 C36.60758545 33.84941895 36.80086426 34.41612305 37 35 C36.505 35.99 36.505 35.99 36 37 C30.86957465 31.89483498 25.74299922 26.78582802 20.61914062 21.67407227 C18.87394182 19.93391645 17.12784853 18.19465726 15.38085938 16.45629883 C12.87657281 13.96407941 10.3754728 11.46870129 7.875 8.97265625 C7.08754395 8.19036148 6.30008789 7.40806671 5.48876953 6.60206604 C4.76802246 5.8813945 4.04727539 5.16072296 3.3046875 4.41821289 C2.66515137 3.78089737 2.02561523 3.14358185 1.36669922 2.48695374 C0 1 0 1 0 0 Z " fill="#1B6EB0" transform="translate(153,173)"/>
<path d="M0 0 C4.72899388 3.86917681 9.11269322 8.00302036 13.4375 12.3125 C13.98180664 12.85229492 14.52611328 13.39208984 15.08691406 13.94824219 C19 17.87627307 19 17.87627307 19 19 C15.37 19 11.74 19 8 19 C6.66199 16.21048807 5.32942906 13.41859755 4 10.625 C3.6184375 9.8309375 3.236875 9.036875 2.84375 8.21875 C2.4828125 7.45820313 2.121875 6.69765625 1.75 5.9140625 C1.41484375 5.2123291 1.0796875 4.5105957 0.734375 3.78759766 C0 2 0 2 0 0 Z " fill="#1C71B4" transform="translate(187,153)"/>
</svg>
