<?xml version="1.0" standalone="no"?>
<!DOCTYPE svg PUBLIC "-//W3C//DTD SVG 20010904//EN"
 "http://www.w3.org/TR/2001/REC-SVG-20010904/DTD/svg10.dtd">
<svg version="1.0" xmlns="http://www.w3.org/2000/svg"
 width="512.000000pt" height="512.000000pt" viewBox="0 0 512.000000 512.000000"
 preserveAspectRatio="xMidYMid meet">

<g transform="translate(0.000000,512.000000) scale(0.100000,-0.100000)"
fill="#000000" stroke="none">
<path d="M2330 4994 c-169 -20 -218 -28 -305 -46 -240 -49 -552 -178 -765
-318 -675 -442 -1066 -1195 -1037 -1995 16 -434 142 -831 376 -1180 l74 -110
-153 -613 c-84 -337 -150 -615 -148 -618 3 -2 287 106 633 241 l627 245 92
-34 c121 -46 255 -81 401 -107 153 -27 447 -36 606 -20 712 74 1345 470 1721
1077 626 1011 361 2347 -602 3045 -390 282 -813 424 -1295 434 -104 2 -206 1
-225 -1z m422 -109 c605 -71 1138 -376 1504 -862 205 -272 351 -615 409 -963
23 -133 30 -419 16 -563 -89 -862 -673 -1589 -1494 -1861 -428 -141 -925 -142
-1347 -3 -58 19 -128 43 -155 55 l-51 20 -559 -218 c-308 -121 -560 -218 -562
-217 -1 1 60 248 135 547 l136 545 -51 70 c-357 493 -490 1116 -367 1723 62
311 210 631 412 897 64 84 262 285 352 358 454 367 1047 539 1622 472z"/>
<path d="M2251 4564 c-704 -96 -1299 -590 -1524 -1264 -198 -594 -90 -1232
295 -1738 l80 -105 -96 -340 c-53 -187 -95 -341 -93 -343 2 -2 163 59 358 136
l355 139 85 -41 c222 -107 537 -178 788 -178 806 0 1530 520 1785 1282 268
801 -34 1682 -739 2153 -376 252 -843 360 -1294 299z m-218 -853 l39 -6 69
-185 c38 -102 85 -222 104 -267 52 -120 49 -137 -34 -230 -38 -43 -81 -89 -96
-103 -58 -54 -53 -73 53 -216 142 -191 342 -385 526 -509 80 -54 109 -65 121
-45 4 6 54 53 111 105 126 114 129 114 277 52 56 -24 174 -70 262 -102 88 -32
164 -62 169 -66 4 -4 12 -61 17 -126 l8 -118 -36 -52 c-51 -75 -161 -176 -229
-209 -56 -28 -65 -29 -184 -28 -76 1 -155 8 -200 18 -312 69 -634 255 -919
530 -358 347 -551 737 -555 1121 -1 116 0 122 31 185 39 79 105 156 189 219
l62 48 89 -5 c48 -2 105 -7 126 -11z"/>
</g>
</svg>
