<?xml version="1.0" standalone="no"?>
<!DOCTYPE svg PUBLIC "-//W3C//DTD SVG 20010904//EN"
 "http://www.w3.org/TR/2001/REC-SVG-20010904/DTD/svg10.dtd">
<svg version="1.0" xmlns="http://www.w3.org/2000/svg"
 width="600.000000pt" height="600.000000pt" viewBox="0 0 600.000000 600.000000"
 preserveAspectRatio="xMidYMid meet">

<g transform="translate(0.000000,600.000000) scale(0.100000,-0.100000)"
fill="#000000" stroke="none">
<path d="M2745 5789 c-225 -20 -496 -81 -722 -164 -127 -47 -393 -177 -508
-250 -254 -160 -574 -453 -748 -687 -645 -864 -748 -1994 -267 -2947 203 -403
530 -781 895 -1034 972 -675 2238 -675 3210 0 302 209 593 520 786 839 205
337 324 675 385 1090 25 168 25 562 1 728 -50 333 -121 571 -256 851 -144 299
-297 513 -545 760 -252 251 -441 388 -741 535 -88 44 -204 95 -258 115 -391
143 -817 200 -1232 164z m509 -1123 c231 -60 447 -213 577 -411 264 -399 212
-923 -124 -1259 -305 -305 -772 -382 -1152 -189 -269 136 -453 367 -528 663
-32 128 -30 349 5 481 103 382 403 660 795 734 116 22 301 14 427 -19z m51
-2291 c319 -55 581 -167 837 -357 233 -173 463 -458 582 -720 l35 -77 -72 -65
c-347 -311 -749 -516 -1187 -605 -179 -36 -283 -46 -500 -46 -217 0 -321 10
-500 46 -438 89 -840 294 -1187 605 l-72 65 35 77 c81 179 207 362 358 519
315 330 729 529 1201 577 83 8 383 -3 470 -19z"/>
</g>
</svg>
