<?xml version="1.0" encoding="UTF-8"?>
<svg version="1.1" xmlns="http://www.w3.org/2000/svg" width="675" height="675">
<path d="M0 0 C0.8657666 0.35914993 1.7315332 0.71829987 2.62353516 1.08833313 C5.43603123 2.25966898 8.23734218 3.45549061 11.0390625 4.65234375 C12.99103932 5.47178854 14.9436847 6.28964249 16.89697266 7.10595703 C20.87770503 8.77217313 24.85428613 10.44778432 28.828125 12.13037109 C34.32100669 14.45200029 39.83266382 16.72542412 45.3515625 18.984375 C47.80340265 19.99126652 50.25494745 20.99887302 52.70635986 22.00680542 C54.24934819 22.64050898 55.79291929 23.27279558 57.33709717 23.90359497 C59.47742217 24.77962966 61.61408152 25.66406689 63.75 26.55078125 C64.9467334 27.04368652 66.1434668 27.5365918 67.37646484 28.04443359 C72.82743486 30.6067862 76.59584886 32.45581935 78.90493011 38.22628975 C80.66293605 43.69983037 81.62018941 49.38483766 82.71655273 55.02001953 C83.00936329 56.49460514 83.30285724 57.96905518 83.59697628 59.44338036 C84.39655456 63.46153817 85.18653063 67.48153127 85.97487783 71.50190544 C86.81702064 75.78766568 87.66813555 80.07164406 88.51821899 84.35583496 C90.15679212 92.62096508 91.78734856 100.8876562 93.41509223 109.15492511 C95.28381823 118.64444067 97.16059572 128.1323577 99.03811395 137.62013698 C101.47225522 149.92114828 103.90479877 162.22247339 106.33222961 174.52481079 C106.51494248 175.45079712 106.69765535 176.37678345 106.88590497 177.33082998 C107.15835395 178.7116074 107.15835395 178.7116074 107.43630695 180.12027931 C111.12365656 198.80768586 114.8254281 217.49213702 118.54758263 236.17264175 C119.96538825 243.28908797 121.38112519 250.40594606 122.79713917 257.52274895 C123.86322829 262.88005794 124.93034848 268.23715727 125.99972534 273.59381104 C126.97681626 278.48901791 127.95034081 283.3849199 128.9209404 288.28141785 C129.26744641 290.02614575 129.61527351 291.77061191 129.96455765 293.51478577 C130.43046915 295.84202457 130.8917517 298.17013271 131.35180664 300.49853516 C131.60756973 301.78321686 131.86333282 303.06789856 132.12684631 304.39151001 C132.6640625 307.58984375 132.6640625 307.58984375 132.6640625 311.58984375 C223.0840625 311.58984375 313.5040625 311.58984375 406.6640625 311.58984375 C408.1490625 306.14484375 408.1490625 306.14484375 409.6640625 300.58984375 C410.34497216 298.38130516 411.04415305 296.17822385 411.77026367 293.98413086 C412.15949509 292.80294174 412.5487265 291.62175262 412.94975281 290.4047699 C413.36465469 289.15486771 413.77955658 287.90496552 414.20703125 286.6171875 C414.65209798 285.26894309 415.09685833 283.92059751 415.54133606 282.57215881 C416.4847499 279.71130188 417.4296321 276.85093641 418.37573242 273.9909668 C420.88981417 266.38978308 423.39274474 258.78492529 425.89453125 251.1796875 C426.14512173 250.41810711 426.3957122 249.65652672 426.65389633 248.87186813 C431.36136249 234.560457 435.96893943 220.21861531 440.53138733 205.86032104 C446.3762208 187.47365561 452.38253272 169.14135896 458.41174316 150.8145752 C459.68667701 146.93847013 460.96046949 143.06199001 462.234375 139.18554688 C464.70985792 131.65329061 467.1865456 124.12143125 469.6640625 116.58984375 C445.17055329 115.4257634 420.67696441 114.26336558 396.18332291 113.10207224 C393.30091533 112.96540574 390.41850873 112.82871857 387.53610229 112.69202805 C345.38960118 110.69345826 303.24292122 108.699377 261.09375 106.7578125 C260.33306355 106.72276328 259.5723771 106.68771406 258.78863955 106.65160275 C244.46917171 105.99186893 230.14962208 105.33393463 215.82987559 104.68027538 C210.02092203 104.41509568 204.21201097 104.148994 198.4031105 103.88265419 C194.96692916 103.72545735 191.53069335 103.56949662 188.0944519 103.41362 C183.16533491 103.18952786 178.23694759 102.95254411 173.30862427 102.71171951 C170.74216004 102.59344291 168.17564915 102.49611486 165.6081543 102.40328979 C164.08185546 102.33809317 162.55556875 102.27261192 161.02929688 102.20678711 C159.73906616 102.15896591 158.44883545 102.11114471 157.11950684 102.06187439 C151.62666446 101.31152519 147.02831976 99.06994279 143.58984375 94.58984375 C141.51412772 90.10559647 141.7645985 85.3550892 142.6640625 80.58984375 C144.70355456 76.5595847 147.07047522 74.26925212 151.22089958 72.49976444 C155.52291501 71.36287579 159.23951637 71.49010345 163.65310669 71.72642517 C164.99973424 71.78483218 164.99973424 71.78483218 166.37356639 71.84441912 C169.39042084 71.97795101 172.40626006 72.12761985 175.42236328 72.27709961 C177.60463467 72.37690582 179.78695418 72.47566446 181.96931648 72.57346249 C186.70332162 72.78758673 191.43693786 73.00861937 196.17038727 73.23469162 C203.73063879 73.59507588 211.29168772 73.93614963 218.85296631 74.27420044 C234.23999806 74.96437163 249.62614949 75.67296955 265.0121932 76.38477826 C269.5907344 76.59656137 274.16929849 76.80784683 278.74786758 77.0190258 C293.95254583 77.72035944 309.15717616 78.422718 324.36173926 79.12654353 C325.17049031 79.16398094 325.97924135 79.20141835 326.8125 79.23999023 C327.62226776 79.27747491 328.43203552 79.31495959 329.2663417 79.35358017 C342.49591382 79.96592124 355.72560143 80.57572779 368.95534132 81.18443228 C382.64487199 81.81431959 396.33431726 82.4460346 410.02367508 83.07966751 C417.6686229 83.43348967 425.31360274 83.78658163 432.95867538 84.13769722 C439.43433937 84.43512019 445.9099217 84.73425108 452.38540535 85.03557605 C455.68013719 85.18884274 458.97491111 85.34106966 462.26976585 85.49167442 C465.84766799 85.65534888 469.42541642 85.82206162 473.00314331 85.98951721 C474.03103466 86.03582246 475.05892601 86.08212771 476.11796558 86.12983614 C480.97497399 86.36025485 485.82603808 86.64246989 490.67411995 87.01798916 C491.54923041 87.08508192 492.42434086 87.15217467 493.32596982 87.22130054 C497.98965019 87.95641585 500.69240282 90.31663451 503.4765625 93.96484375 C506.35374629 100.32493423 505.39722898 104.90808621 503.4375 111.296875 C503.17133881 112.19453079 502.90517761 113.09218658 502.63095093 114.01704407 C498.40204728 128.05800502 493.70386424 141.95890661 489.08548737 155.87531281 C486.63428494 163.26818103 484.19697206 170.66565187 481.7578125 178.0625 C481.35556646 179.28171017 481.35556646 179.28171017 480.94519424 180.52555084 C476.47964481 194.06348576 472.10013901 207.6268771 467.7890625 221.21484375 C460.63536453 243.74626454 453.24927981 266.20012656 445.8515625 288.65234375 C445.55885719 289.54077217 445.26615189 290.42920059 444.96457672 291.34455109 C437.61511759 313.65004126 437.61511759 313.65004126 434.82505798 322.07046509 C434.11596062 324.21998432 433.41328461 326.37165275 432.72193909 328.52694702 C430.42886896 335.63640628 430.42886896 335.63640628 427.2265625 338.08984375 C426.65035156 338.55390625 426.07414062 339.01796875 425.48046875 339.49609375 C422.15799855 341.49672097 418.9136988 341.71472361 415.09573746 341.71289158 C413.7200418 341.71587815 413.7200418 341.71587815 412.31655431 341.71892506 C411.31266817 341.71601222 410.30878203 341.71309938 409.2744751 341.71009827 C408.20525023 341.71095269 407.13602537 341.71180712 406.03439975 341.71268743 C402.43990848 341.71433884 398.84546355 341.70882636 395.25097656 341.70336914 C392.67899069 341.70308717 390.10700474 341.7032452 387.53501892 341.70381165 C381.99167651 341.70433613 376.44834586 341.70119716 370.90500641 341.69557381 C362.89025727 341.68744866 354.87551383 341.68484254 346.86076102 341.68358582 C333.85752886 341.6813969 320.85430297 341.67474113 307.85107422 341.6652832 C295.2192386 341.65610496 282.58740469 341.64902614 269.95556641 341.64477539 C269.17701145 341.64451267 268.3984565 341.64424994 267.59630898 341.64397926 C263.69054893 341.64267423 259.78478887 341.64141052 255.8790288 341.64016736 C223.47403547 341.62979972 191.06904986 341.61218574 158.6640625 341.58984375 C158.52109741 342.79954834 158.52109741 342.79954834 158.37524414 344.03369141 C157.49629924 348.42871764 155.95833459 352.34226352 154.28515625 356.48828125 C153.95363052 357.32324127 153.6221048 358.15820129 153.28053284 359.01846313 C152.22644132 361.66951393 151.1641387 364.31718389 150.1015625 366.96484375 C149.38291795 368.76801182 148.66481304 370.57139506 147.94726562 372.375 C146.19243675 376.78246393 144.43023925 381.18691559 142.6640625 385.58984375 C143.25175999 385.58870459 143.83945748 385.58756543 144.44496399 385.58639175 C179.2751155 385.51926048 214.10525587 385.46778557 248.9354586 385.43664776 C253.1173729 385.43289563 257.29928707 385.42901267 261.48120117 385.42504883 C262.73001919 385.42386843 262.73001919 385.42386843 264.00406586 385.42266419 C277.48529821 385.40960955 290.96649218 385.38595538 304.44770176 385.35838536 C318.28021496 385.33033279 332.11270806 385.3136678 345.94524854 385.30757827 C354.48097139 385.30346152 363.01658577 385.2904581 371.55227523 385.26609435 C377.40517041 385.250239 383.25800951 385.24544294 389.11092461 385.24933962 C392.48802779 385.25126151 395.86478856 385.24667237 399.24188423 385.23222733 C402.90486194 385.21732591 406.56737369 385.22088208 410.23036194 385.2290802 C411.29554662 385.22034168 412.36073131 385.21160315 413.45819432 385.20259982 C419.30629353 385.23803437 423.52237424 385.71985161 428.6640625 388.58984375 C433.16125547 393.44207827 434.01451202 396.58284132 433.94921875 403.046875 C433.42832994 407.69206147 431.00517037 410.41129441 427.6015625 413.40234375 C424.49243987 415.30793504 421.78068543 415.73872724 418.21484375 415.90625 C417.36728516 415.94814453 416.51972656 415.99003906 415.64648438 416.03320312 C414.76541016 416.07251953 413.88433594 416.11183594 412.9765625 416.15234375 C412.08388672 416.19552734 411.19121094 416.23871094 410.27148438 416.28320312 C408.06916142 416.38919728 405.86672777 416.49126426 403.6640625 416.58984375 C404.0652832 417.03134766 404.46650391 417.47285156 404.87988281 417.92773438 C408.02173828 421.47112316 410.5279538 424.69753582 412.4140625 429.08984375 C412.80078125 429.96640625 413.1875 430.84296875 413.5859375 431.74609375 C418.20312452 443.92476097 418.85364321 458.76478493 413.91796875 470.9921875 C407.09568082 485.12558773 397.65059156 494.4864882 383.0859375 500.6875 C370.59750327 504.80561865 355.57858233 503.91836911 343.6640625 498.58984375 C330.5008695 491.73039621 321.81912495 481.94332047 316.2890625 468.21484375 C312.07807419 454.52028512 313.53735814 439.32121207 320.16015625 426.75 C322.40061236 422.85574087 324.47001244 419.78389381 327.6640625 416.58984375 C289.7140625 416.58984375 251.7640625 416.58984375 212.6640625 416.58984375 C215.6340625 420.54984375 215.6340625 420.54984375 218.6640625 424.58984375 C225.72123473 437.17970197 227.64885844 450.60845099 224.5390625 464.77734375 C220.79654231 477.82418495 212.66167396 489.15020079 201.06640625 496.34375 C188.52370127 502.84964087 172.97428093 505.26377115 159.1640625 501.46484375 C145.15598266 496.22703998 134.63080816 487.90809 127.6640625 474.58984375 C121.62900141 460.79541841 120.91841227 446.96792903 125.6640625 432.58984375 C128.33356984 426.67505298 131.53165539 421.58800354 135.6640625 416.58984375 C134.4575 416.5640625 133.2509375 416.53828125 132.0078125 416.51171875 C130.39319512 416.45539489 128.77861317 416.39804855 127.1640625 416.33984375 C126.37257812 416.32566406 125.58109375 416.31148438 124.765625 416.296875 C118.31644077 416.03256417 112.50019204 414.64867168 107.97265625 409.765625 C107.68519531 409.15074219 107.39773437 408.53585937 107.1015625 407.90234375 C106.63556641 406.99935547 106.63556641 406.99935547 106.16015625 406.078125 C104.50612589 397.78192546 108.14387197 389.888662 111.13671875 382.3359375 C111.5792247 381.19447769 112.02173065 380.05301788 112.47764587 378.87696838 C113.88387359 375.25640615 115.30495455 371.64189086 116.7265625 368.02734375 C117.6865359 365.56353617 118.64553085 363.09934711 119.60351562 360.63476562 C121.94572405 354.61533004 124.30013263 348.60077976 126.6640625 342.58984375 C125.43538452 342.41678711 125.43538452 342.41678711 124.18188477 342.24023438 C123.10479248 342.07716797 122.0277002 341.91410156 120.91796875 341.74609375 C119.31804077 341.51116211 119.31804077 341.51116211 117.68579102 341.27148438 C113.04035573 340.22356846 110.48090616 338.37136998 107.6640625 334.58984375 C105.07434903 328.11777181 103.82877298 321.10344504 102.5012207 314.28320312 C102.20652657 312.80095245 102.20652657 312.80095245 101.90587902 311.28875732 C101.25418554 308.00461025 100.6095031 304.71912821 99.96484375 301.43359375 C99.49687335 299.06750446 99.02847841 296.70149911 98.55969238 294.33557129 C97.42245347 288.59008678 96.28977788 282.84371389 95.15916741 277.0969224 C93.83774713 270.38152029 92.51065362 263.66724295 91.18340147 256.95299149 C87.95410402 240.61512262 84.73574025 224.27510595 81.51934814 207.93469238 C80.66660729 203.60257604 79.81356314 199.27051945 78.96044922 194.93847656 C74.10951818 170.30557153 69.25993211 145.67240271 64.42114258 121.03710938 C63.93257748 118.55017071 63.44401142 116.06323223 62.95544434 113.57629395 C62.06203116 109.02846084 61.16918513 104.48051698 60.2767334 99.93249512 C59.86917746 97.85733326 59.4615855 95.78217848 59.05395508 93.70703125 C58.8597101 92.71679207 58.66546513 91.72655289 58.46533394 90.70630646 C57.40893541 85.33251168 56.33725774 79.9621399 55.24887085 74.59472656 C55.01645785 73.44537628 54.78404486 72.296026 54.54458904 71.11184692 C54.09647089 68.89931634 53.64592765 66.68727515 53.19263172 64.47579956 C52.99235717 63.48621246 52.79208261 62.49662537 52.58573914 61.47705078 C52.40741893 60.60372101 52.22909872 59.73039124 52.04537487 58.83059692 C51.6640625 56.58984375 51.6640625 56.58984375 51.6640625 53.58984375 C51.02879639 53.50009277 50.39353027 53.4103418 49.73901367 53.31787109 C45.45470449 52.3035154 41.52646689 50.62304714 37.46484375 48.94140625 C36.56461487 48.57282501 35.66438599 48.20424377 34.73687744 47.82449341 C31.81466428 46.62633267 28.89536951 45.42127643 25.9765625 44.21484375 C23.97584466 43.38961309 21.9751122 42.56441787 19.97436523 41.73925781 C16.98839478 40.50707265 14.00283105 39.2739382 11.01832581 38.03820801 C6.04888928 35.9812886 1.07441847 33.93952847 -3.9172821 31.93722534 C-6.87394338 30.74942956 -9.82290316 29.5427623 -12.7734375 28.33984375 C-13.79977295 27.93588379 -14.8261084 27.53192383 -15.88354492 27.11572266 C-21.55059447 24.77442022 -24.9362696 22.75566355 -28.3359375 17.58984375 C-29.90988776 12.86799296 -29.91006801 9.05387656 -28.0859375 4.40234375 C-21.25998897 -6.56793067 -10.50571207 -4.56470693 0 0 Z M156.1015625 438.71484375 C152.05024457 444.61392992 151.77292706 450.60503928 152.6640625 457.58984375 C155.12644639 463.85230797 158.55832067 468.53697283 164.6640625 471.58984375 C170.52352383 474.08323155 175.75923849 474.41401254 181.7890625 472.33984375 C187.98382384 469.73780527 191.61892795 466.15814809 194.7109375 460.21875 C196.94527043 454.05602023 196.73766889 447.25070088 194.1640625 441.21484375 C191.13851287 436.04664509 186.33148709 433.0945448 181.2265625 430.21484375 C171.37345286 427.81164628 162.39465201 430.55490472 156.1015625 438.71484375 Z M347.6640625 438.58984375 C344.39392411 443.78359296 342.35158445 449.42690335 343.6640625 455.58984375 C346.30745794 462.92386003 349.59631385 467.79875108 356.47265625 471.5859375 C361.89544071 474.0409204 366.93470105 474.08129657 372.6640625 472.58984375 C379.19717539 469.67127098 383.08213233 465.58421157 386.4140625 459.27734375 C388.74825246 452.39148337 388.20149648 447.2033609 385.0625 440.76953125 C381.96835733 435.94681726 377.7961955 432.61149081 372.6640625 430.15234375 C362.61985573 428.26905498 354.48289106 430.82583103 347.6640625 438.58984375 Z " fill="#0076BB" transform="translate(95.3359375,91.41015625)"/>
</svg>
